<?xml version="1.0" standalone="no"?>
<!DOCTYPE svg PUBLIC "-//W3C//DTD SVG 20010904//EN"
 "http://www.w3.org/TR/2001/REC-SVG-20010904/DTD/svg10.dtd">
<svg version="1.0" xmlns="http://www.w3.org/2000/svg"
 width="1024.000000pt" height="1024.000000pt" viewBox="0 0 1024.000000 1024.000000"
 preserveAspectRatio="xMidYMid meet">

<g transform="translate(0.000000,1024.000000) scale(0.100000,-0.100000)"
fill="#000000" stroke="none">
<path d="M7100 8560 c-19 -19 -20 -33 -20 -340 l0 -321 25 -24 c33 -33 70 -32
106 4 l29 29 0 310 c0 298 -1 310 -21 336 -26 33 -88 37 -119 6z m96 -27 c15
-16 16 -38 10 -252 -4 -130 -9 -237 -12 -240 -2 -2 -4 4 -4 13 0 12 -5 16 -16
12 -8 -3 -12 -2 -9 4 3 6 1 10 -4 10 -6 0 -11 -5 -11 -11 0 -6 -6 -9 -14 -6
-8 3 -17 1 -20 -6 -2 -7 -5 96 -5 229 -1 174 2 243 11 252 17 17 54 15 74 -5z"/>
<path d="M6820 8441 c0 -39 -1 -40 -37 -43 -52 -4 -52 -32 -1 -36 36 -3 37 -5
40 -45 4 -59 32 -58 36 1 3 42 3 42 43 42 33 0 40 3 37 18 -2 12 -14 18 -40
20 -35 3 -37 5 -40 40 -2 26 -8 38 -20 40 -15 3 -18 -4 -18 -37z"/>
<path d="M7323 8372 c-47 -7 -53 -33 -53 -219 0 -160 2 -175 20 -193 12 -12
33 -20 55 -20 22 0 43 8 55 20 19 19 20 33 20 198 0 158 -2 181 -17 194 -21
18 -49 25 -80 20z m65 -207 c3 -177 -1 -195 -42 -195 -42 0 -46 15 -46 186 0
154 1 164 21 178 14 9 29 12 43 7 20 -8 21 -15 24 -176z"/>
<path d="M6273 8258 l-153 -91 0 -159 c0 -87 -2 -158 -5 -158 -2 0 -34 16 -70
36 l-65 36 -98 -58 c-53 -31 -120 -71 -149 -88 -28 -16 -54 -39 -57 -50 -3
-12 -6 -60 -6 -109 l0 -87 -42 30 c-22 16 -48 30 -58 30 -9 0 -55 -40 -104
-89 -69 -71 -100 -95 -150 -116 l-63 -27 -56 37 c-37 25 -62 35 -75 31 -16 -5
-29 6 -65 57 -55 77 -114 130 -134 123 -48 -19 -58 -16 -86 25 l-28 40 -52
-29 -52 -29 -5 -94 c-6 -112 1 -153 31 -185 l23 -25 -45 -44 -44 -45 -165 91
c-341 190 -447 230 -555 210 -94 -17 -149 -56 -206 -144 -37 -57 -49 -89 -63
-164 l-5 -33 157 0 c173 0 249 -13 335 -56 101 -51 152 -107 255 -280 13 -22
21 -31 18 -22 -3 10 -2 17 2 17 20 -3 32 2 27 11 -4 6 -11 7 -17 4 -7 -4 -8
-2 -4 4 6 11 58 -17 219 -115 45 -28 55 -39 46 -49 -6 -8 -16 -11 -22 -7 -6 4
-8 0 -4 -10 3 -9 2 -19 -3 -22 -16 -10 -11 -33 14 -73 55 -85 57 -142 9 -190
-26 -26 -26 -26 -8 -56 10 -17 45 -80 80 -141 34 -60 126 -223 205 -362 l143
-252 44 -7 c55 -8 102 -47 128 -104 10 -22 21 -40 24 -40 5 0 93 179 109 221
2 5 -6 9 -18 9 -13 0 -20 5 -17 13 2 6 13 12 24 11 15 0 19 5 15 18 -2 10 -8
18 -13 18 -4 0 -45 -25 -89 -55 -44 -30 -87 -55 -95 -55 -26 0 -26 20 -1 32
14 6 26 15 26 19 0 5 28 27 63 50 92 62 105 76 149 164 53 105 83 145 112 145
19 0 48 51 226 403 112 221 226 442 253 492 37 66 51 105 57 150 6 48 20 83
68 165 33 58 79 145 103 195 51 104 119 179 199 221 50 26 66 29 180 32 69 2
131 5 139 8 10 3 0 19 -33 53 -47 48 -48 49 -27 60 21 12 21 17 19 194 l-3
181 -150 88 c-82 48 -159 87 -170 87 -11 -1 -89 -42 -172 -91z m309 -14 c73
-42 134 -78 136 -79 6 -5 -269 -166 -277 -163 -29 12 -269 153 -266 156 8 8
260 160 267 161 3 1 66 -33 140 -75z m154 -149 c-7 -27 -13 -30 -36 -15 -13 9
-11 13 10 29 29 23 35 21 26 -14z m-663 -260 c43 -25 75 -50 72 -54 -8 -13
-235 -141 -250 -141 -14 0 -152 77 -159 89 -6 9 223 150 244 151 9 0 50 -20
93 -45z m97 -156 c0 -40 -4 -58 -11 -54 -6 4 -8 13 -5 21 3 8 0 11 -10 7 -7
-3 -14 0 -14 7 0 6 -4 9 -10 5 -5 -3 -7 -12 -3 -20 5 -14 0 -16 -36 -19 -8 -1
-16 -7 -19 -14 -2 -8 3 -10 15 -6 17 5 17 5 -1 -6 -11 -8 -21 -9 -25 -3 -11
16 -39 22 -45 10 -5 -9 -7 -9 -12 1 -3 6 -12 12 -20 12 -9 0 -13 -4 -10 -8 2
-4 -4 -8 -15 -8 -10 0 -19 1 -19 2 0 6 197 117 208 117 6 0 12 4 12 9 0 4 5 8
10 8 6 0 10 -27 10 -61z m-1340 -89 c23 -44 23 -44 51 -30 16 9 21 7 29 -16 6
-15 9 -31 8 -36 -3 -8 -171 -88 -184 -88 -2 0 -4 38 -4 84 0 80 1 85 28 105
39 29 49 26 72 -19z m760 -38 c0 -14 -139 -146 -147 -139 -4 4 24 39 62 77 66
66 85 80 85 62z m-594 -68 c5 -27 4 -28 -10 -9 -8 11 -12 23 -10 27 2 4 0 9
-6 13 -5 3 -10 11 -10 18 0 22 31 -19 36 -49z m1094 -97 c0 -92 -8 -117 -37
-117 -10 0 -13 23 -13 89 0 103 5 121 31 121 17 0 19 -8 19 -93z m-659 -14
c13 -16 12 -17 -3 -4 -10 7 -18 15 -18 17 0 8 8 3 21 -13z m-1203 -5 c33 -33
-6 -96 -52 -84 -52 13 -41 96 12 96 16 0 33 -5 40 -12z m1243 -35 c13 -16 12
-17 -3 -4 -10 7 -18 15 -18 17 0 8 8 3 21 -13z m45 -44 c36 16 40 8 15 -27
-29 -41 -27 -58 14 -103 19 -22 35 -36 35 -33 0 4 7 1 15 -6 20 -17 9 -33 -15
-20 -13 7 -20 6 -23 -3 -3 -6 -6 -3 -6 7 -1 11 -4 17 -7 13 -6 -6 -38 20 -40
32 -3 24 -19 41 -31 36 -11 -3 -13 -1 -9 10 4 12 2 13 -14 3 -10 -7 -23 -9
-27 -5 -4 5 -1 12 6 16 8 6 9 11 3 15 -6 3 -18 -1 -26 -10 -15 -14 -20 -11
-17 9 0 4 -2 6 -6 5 -18 -6 -16 12 6 60 l24 51 38 -31 c35 -28 42 -30 65 -19z
m174 31 l25 -19 -50 -51 -49 -50 -25 25 -25 25 44 45 c24 25 47 45 50 45 3 0
16 -9 30 -20z m-689 -121 c236 -142 249 -151 249 -170 0 -13 -278 -265 -382
-347 -14 -12 -41 2 -203 100 -143 87 -184 116 -178 128 4 8 8 38 11 67 l4 51
150 141 c83 78 154 141 158 141 4 0 90 -50 191 -111z m227 62 c19 -11 11 -45
-11 -49 -19 -4 -32 20 -23 43 6 17 15 19 34 6z m871 -67 c-8 -10 -27 -14 -58
-12 -44 3 -46 5 -49 35 -3 31 -3 31 36 26 22 -3 48 -1 58 5 16 9 19 7 22 -14
2 -14 -2 -32 -9 -40z m-1661 7 c19 -11 11 -45 -11 -49 -19 -4 -32 20 -23 43 6
17 15 19 34 6z m1142 -16 c13 -14 21 -25 18 -25 -2 0 -15 11 -28 25 -13 14
-21 25 -18 25 2 0 15 -11 28 -25z m227 -111 c3 -8 -1 -22 -9 -30 -12 -12 -17
-12 -33 -1 -23 17 -14 47 15 47 11 0 23 -7 27 -16z m176 -39 c-3 -9 -8 -14
-10 -11 -3 3 -2 9 2 15 9 16 15 13 8 -4z m-56 -77 c13 -12 23 -25 23 -29 0 -8
-144 -109 -155 -109 -3 0 -21 12 -40 27 l-34 28 81 52 c44 29 85 53 91 53 6 0
21 -10 34 -22z m-678 -100 c-1 -62 -4 -107 -6 -100 -3 6 -9 12 -15 12 -6 0
-17 8 -24 18 -12 16 -13 15 -8 -3 4 -16 0 -21 -18 -22 -16 -2 -19 0 -9 6 7 5
12 14 9 21 -3 9 -9 8 -21 -5 -10 -9 -29 -18 -44 -20 -15 -1 -29 -7 -31 -13 -1
-5 -11 -8 -20 -5 -9 2 -26 -3 -37 -12 -13 -10 -14 -13 -4 -10 21 8 46 -22 32
-36 -8 -8 -11 -6 -10 7 2 14 -5 19 -24 18 -47 -2 -28 26 85 125 61 54 117 105
125 114 7 10 15 17 18 17 2 0 3 -51 2 -112z m144 30 c-6 -12 -49 -10 -78 4
-19 9 -25 19 -25 44 l0 33 54 -37 c29 -20 52 -40 49 -44z m582 -9 c4 -6 13 -8
21 -5 20 8 17 0 -8 -25 -13 -12 -16 -18 -8 -14 13 8 13 7 0 -9 -8 -11 -16 -14
-18 -7 -2 6 -8 11 -13 11 -6 0 -7 -4 -4 -10 3 -5 1 -10 -5 -10 -6 0 -9 -4 -6
-8 2 -4 -4 -14 -16 -21 -11 -7 -17 -8 -14 -3 3 5 -2 16 -12 23 -14 11 -15 11
-5 0 13 -15 7 -41 -9 -41 -6 0 -16 -6 -22 -14 -7 -9 -18 -11 -31 -6 -11 5 -14
9 -6 9 11 1 11 4 1 16 -14 17 -3 38 17 31 8 -3 11 -2 8 4 -8 13 30 31 42 19
13 -13 43 -1 43 18 0 10 -6 13 -17 9 -10 -4 -4 5 12 18 34 28 41 31 50 15z
m-485 -51 c12 -29 29 -61 38 -71 21 -24 7 -35 -51 -39 l-49 -3 -24 59 c-13 33
-24 62 -24 66 0 7 60 38 76 39 6 1 22 -23 34 -51z m-170 6 c0 -8 -5 -12 -10
-9 -6 4 -8 11 -5 16 9 14 15 11 15 -7z m395 4 c25 -11 55 -54 55 -79 0 -7 -16
-27 -35 -46 -55 -54 -105 -169 -105 -244 0 -19 -6 -28 -22 -32 -23 -6 -23 -6
-3 10 19 15 19 15 -5 8 -14 -4 -29 -11 -34 -16 -5 -4 -18 -3 -29 3 -15 7 -22
7 -28 -3 -12 -19 -11 65 1 132 15 83 73 191 127 238 53 47 45 44 78 29z m-366
-25 c9 -18 9 -22 -2 -18 -7 3 -13 15 -14 26 -2 24 0 23 16 -8z m-219 -71 c0
-4 -9 -8 -20 -9 -11 -1 -20 2 -20 8 0 5 9 9 20 9 11 0 20 -4 20 -8z m-173 -59
c0 -17 -1 -20 -4 -9 -5 18 -5 18 -16 -1 -53 -87 -67 -101 -67 -65 -1 15 -2 15
-15 -2 -13 -17 -15 -18 -15 -3 0 9 -7 17 -15 17 -8 0 -15 7 -15 15 0 11 5 12
23 6 14 -5 30 -5 40 1 9 5 23 6 30 2 6 -4 9 -3 4 1 -5 6 38 65 48 65 0 0 1
-12 2 -27z m220 1 c-3 -3 -12 -4 -19 -1 -8 3 -5 6 6 6 11 1 17 -2 13 -5z m63
-7 c0 -8 -7 -14 -15 -14 -11 0 -12 4 -4 14 6 7 13 13 15 13 2 0 4 -6 4 -13z
m-457 -11 c9 -7 17 -19 17 -27 0 -12 -2 -12 -9 -1 -11 19 -15 19 -33 4 -13
-10 -17 -10 -21 2 -5 13 10 36 23 36 3 0 13 -7 23 -14z m252 4 c3 -6 -1 -7 -9
-4 -18 7 -21 14 -7 14 6 0 13 -4 16 -10z m225 -41 c0 -5 -6 -9 -13 -9 -8 0
-14 6 -14 14 0 8 6 12 14 9 7 -3 13 -9 13 -14z m-262 -11 c30 -30 -10 -112
-52 -106 -31 4 -35 69 -7 97 24 24 42 26 59 9z m-121 -85 c-3 -10 -5 -2 -5 17
0 19 2 27 5 18 2 -10 2 -26 0 -35z m383 18 c0 -25 -3 -29 -21 -26 -28 5 -41
18 -14 13 11 -1 20 3 21 10 1 6 2 17 3 22 3 22 11 8 11 -19z m125 -75 l70 -42
3 -68 c2 -37 -1 -66 -5 -64 -4 1 -56 36 -114 77 l-106 73 36 34 c20 18 38 33
41 33 3 0 37 -19 75 -43z m-88 -107 c126 -84 153 -108 153 -135 0 -33 -24 -31
-49 4 -18 25 -44 46 -179 142 -23 17 -40 35 -36 41 8 14 22 8 111 -52z m283
41 c0 -5 -7 -7 -15 -4 -8 4 -15 8 -15 10 0 2 7 4 15 4 8 0 15 -4 15 -10z
m-417 -56 c-2 -6 -14 -9 -26 -8 -29 3 -29 3 -24 12 8 11 55 8 50 -4z m25 -6
c-2 -8 5 -12 17 -10 15 2 17 1 6 -7 -8 -5 -11 -16 -8 -25 6 -14 3 -15 -13 -6
-19 10 -27 40 -13 53 10 10 13 8 11 -5z m422 -24 c19 3 45 9 58 12 22 6 23 5
20 -47 -3 -48 -6 -56 -37 -76 -36 -25 -92 -30 -135 -13 -24 9 -26 14 -26 79
l0 69 43 -15 c24 -8 57 -12 77 -9z m-355 -34 c3 -5 1 -10 -5 -10 -6 0 -8 -5
-4 -12 4 -7 3 -8 -4 -4 -14 9 -16 36 -3 36 6 0 13 -4 16 -10z m88 -48 c24 -24
32 -39 23 -39 -8 0 -14 5 -13 11 1 6 -4 10 -10 9 -7 -2 -12 3 -10 10 1 6 -5
11 -13 9 -8 -2 -12 0 -8 4 4 4 3 13 -3 21 -23 27 -2 12 34 -25z m-283 -64 c0
-5 -7 -11 -15 -14 -18 -7 -87 34 -79 48 3 5 0 8 -8 6 -7 -2 -13 1 -13 7 0 5 6
8 14 7 7 -2 10 1 6 7 -3 6 17 -3 44 -21 28 -17 51 -35 51 -40z m157 26 c3 -11
-138 -95 -149 -88 -14 9 2 24 65 65 59 38 77 43 84 23z m23 -135 l0 -101 -27
17 c-44 29 -113 87 -113 95 0 8 119 88 133 89 4 1 7 -45 7 -100z m398 76 c-8
-19 -14 -22 -20 -13 -12 19 -10 26 10 31 9 3 18 5 19 6 2 0 -3 -10 -9 -24z
m-613 -180 c0 -13 -8 -21 -22 -23 -17 -3 -23 2 -23 16 0 10 3 22 7 26 13 13
38 1 38 -19z m189 -238 c18 -32 19 -39 6 -47 -22 -14 -22 -14 -53 30 -25 36
-26 40 -10 49 25 15 33 10 57 -32z"/>
<path d="M4583 7014 c-7 -20 17 -37 34 -23 15 13 6 39 -13 39 -8 0 -17 -7 -21
-16z"/>
<path d="M4694 6949 c-9 -16 12 -33 31 -25 14 5 15 9 5 21 -15 18 -26 19 -36
4z"/>
<path d="M4820 6861 c0 -15 6 -21 21 -21 25 0 22 33 -4 38 -12 2 -17 -3 -17
-17z"/>
<path d="M5125 6810 c5 -15 3 -18 -8 -14 -8 3 -18 1 -22 -5 -10 -17 27 -8 55
13 l25 18 -24 -7 c-16 -5 -21 -4 -17 4 4 6 2 11 -4 11 -7 0 -9 -8 -5 -20z"/>
<path d="M5941 6866 c-8 -10 -9 -16 -1 -21 6 -4 9 -1 8 7 -2 7 3 12 10 10 8
-1 11 2 7 8 -8 13 -10 13 -24 -4z"/>
<path d="M4977 6219 c7 -7 15 -10 18 -7 3 3 -2 9 -12 12 -14 6 -15 5 -6 -5z"/>
<path d="M5940 8215 c0 -33 -2 -35 -35 -35 -28 0 -35 -4 -35 -20 0 -16 7 -20
35 -20 32 0 35 -2 35 -30 0 -20 5 -30 15 -30 10 0 15 10 15 29 0 26 4 30 33
33 20 2 32 8 32 18 0 10 -12 16 -32 18 -30 3 -33 6 -33 38 0 24 -5 34 -15 34
-10 0 -15 -11 -15 -35z"/>
<path d="M5574 8076 c-3 -7 -4 -42 -2 -77 l3 -64 83 -3 82 -3 0 81 0 80 -80 0
c-59 0 -82 -4 -86 -14z m136 -66 l0 -50 -50 0 -50 0 0 50 0 50 50 0 50 0 0
-50z"/>
<path d="M6885 7975 c-24 -23 -25 -29 -25 -155 0 -109 2 -130 15 -130 13 0 15
20 15 124 0 100 3 128 16 140 18 18 23 19 44 6 12 -7 16 -39 20 -141 4 -93 9
-134 18 -137 9 -3 12 28 12 133 0 131 -1 137 -25 160 -13 14 -33 25 -45 25
-11 0 -32 -11 -45 -25z"/>
<path d="M3559 7787 l-87 -52 -4 -95 c-2 -52 -2 -104 0 -116 3 -15 34 -39 102
-78 l98 -57 83 51 c95 58 111 74 105 110 -2 14 -5 62 -5 107 l-1 81 -89 51
c-48 28 -95 51 -102 50 -8 -1 -53 -24 -100 -52z m167 -13 c35 -20 66 -39 69
-44 6 -9 -115 -90 -135 -90 -19 0 -141 73 -138 82 2 6 123 83 136 87 2 1 33
-15 68 -35z"/>
<path d="M4050 7833 c-55 -20 -68 -87 -24 -122 15 -12 35 -21 46 -21 27 0 68
44 68 73 0 44 -51 84 -90 70z m55 -52 c12 -40 -20 -70 -56 -51 -18 10 -26 50
-12 63 14 15 62 7 68 -12z"/>
<path d="M7350 7820 c-11 -11 -20 -33 -20 -50 0 -17 9 -39 20 -50 43 -43 120
-11 120 48 0 60 -78 94 -120 52z m80 -30 c22 -40 -26 -80 -58 -48 -25 25 -6
68 30 68 9 0 22 -9 28 -20z"/>
<path d="M5246 7792 c-3 -5 13 -26 34 -47 l40 -39 -42 -43 c-35 -36 -40 -45
-28 -53 11 -7 25 1 55 30 l41 40 34 -35 c34 -35 60 -45 60 -24 0 6 -16 25 -35
42 -19 17 -35 36 -35 43 0 7 17 26 38 42 30 25 35 33 24 43 -10 11 -20 6 -51
-25 l-39 -39 -32 37 c-31 35 -53 45 -64 28z"/>
<path d="M4358 7742 c-32 -19 -52 -69 -42 -106 9 -39 59 -76 101 -76 49 0 93
45 93 95 0 47 -13 71 -50 90 -37 19 -68 19 -102 -3z m96 -33 c35 -28 35 -70 0
-98 -33 -26 -55 -26 -85 -3 -45 37 -16 122 41 122 9 0 29 -9 44 -21z"/>
<path d="M4392 7688 c-21 -21 -8 -68 19 -68 10 0 39 30 39 40 0 10 -29 40 -39
40 -4 0 -12 -5 -19 -12z"/>
<path d="M3232 7573 l3 -58 55 0 55 0 0 55 0 55 -58 3 -58 3 3 -58z m86 0 c3
-20 -1 -23 -27 -23 -23 0 -31 5 -31 18 0 25 10 33 35 30 12 -2 21 -12 23 -25z"/>
<path d="M6575 7616 c-96 -31 -166 -95 -227 -206 -19 -36 -65 -120 -102 -187
-49 -89 -66 -131 -65 -155 1 -25 -59 -153 -269 -563 -259 -508 -271 -530 -302
-536 -17 -4 -33 -8 -34 -10 -13 -14 -96 -192 -96 -205 0 -9 9 -18 20 -21 11
-3 20 -9 20 -13 0 -13 -130 -283 -192 -398 l-61 -112 -34 60 c-18 33 -33 62
-33 64 0 2 14 6 30 10 40 7 46 27 26 80 -28 72 -56 96 -115 96 l-50 0 -250
440 c-138 242 -251 442 -251 445 0 2 18 9 40 15 58 16 63 47 19 129 -43 80
-71 102 -144 110 l-57 6 -77 134 c-123 216 -214 291 -378 311 -43 5 -240 8
-438 7 l-360 -2 -95 -66 c-101 -70 -133 -107 -151 -173 -25 -94 -6 -142 173
-444 61 -103 167 -286 236 -407 279 -491 275 -483 227 -471 -20 5 -27 2 -37
-19 -10 -22 -5 -34 38 -107 26 -46 76 -132 111 -193 92 -163 84 -155 152 -155
43 0 62 -5 73 -17 9 -10 73 -121 143 -248 115 -206 350 -628 362 -647 2 -5 -9
-8 -24 -8 -31 0 -47 23 -155 219 -26 47 -52 85 -58 83 -6 -1 -9 2 -5 7 9 16
-42 108 -59 108 -9 0 -16 -7 -16 -14 0 -8 -4 -11 -10 -8 -5 3 -10 1 -10 -6 0
-7 -3 -10 -6 -7 -9 10 16 48 31 48 20 0 19 4 -10 50 -14 22 -33 40 -43 41 -10
0 -12 3 -5 6 13 5 -7 49 -110 233 l-52 95 -56 6 c-31 3 -61 9 -68 13 -6 4 -11
1 -11 -8 0 -9 -8 -16 -19 -16 -11 0 -22 -6 -24 -12 -3 -7 -6 9 -6 35 -1 28
-10 65 -22 90 l-22 41 -38 -74 -39 -75 6 135 6 135 -37 63 c-21 34 -42 62 -49
62 -6 0 -65 -24 -130 -53 l-119 -53 -58 15 c-32 9 -60 19 -63 22 -4 3 29 22
71 42 43 19 122 56 176 81 75 35 97 49 97 65 0 11 11 33 24 49 25 28 25 29 7
58 -10 16 -89 156 -176 309 -87 154 -164 290 -172 303 l-14 23 -52 -46 c-28
-25 -55 -44 -59 -43 -8 3 -198 164 -310 261 l-78 69 -65 -24 c-73 -26 -66 -11
-86 -168 l-11 -85 44 -39 c23 -21 96 -84 162 -140 65 -55 131 -112 147 -126
29 -25 29 -25 18 -84 -6 -32 -9 -88 -7 -123 2 -34 -1 -63 -5 -63 -5 0 -28 11
-52 26 l-44 25 -143 -82 c-79 -45 -146 -87 -150 -93 -4 -6 -8 -79 -8 -162 0
-113 3 -154 13 -162 18 -15 278 -162 286 -162 3 0 67 34 141 75 74 41 138 71
142 67 4 -4 30 -62 58 -130 l50 -123 -22 -30 -22 -30 29 -23 c28 -23 29 -24
12 -49 -36 -56 -15 -78 46 -48 23 11 45 17 49 13 12 -12 68 -155 63 -160 -3
-3 -92 -56 -198 -118 l-192 -112 -5 -118 c-4 -99 -9 -126 -27 -159 -33 -57
-31 -165 2 -260 15 -43 25 -92 25 -126 l0 -57 246 -131 246 -131 101 59 c56
32 126 70 155 85 l52 26 2 -97 c1 -54 2 -161 3 -238 2 -172 7 -202 52 -287 43
-82 94 -130 182 -172 59 -28 76 -31 156 -31 77 0 98 4 148 27 71 33 133 81
158 121 l18 30 52 -50 53 -50 1 -277 c2 -316 2 -316 80 -316 76 0 80 11 83
237 l3 195 67 -63 c37 -35 151 -146 255 -247 148 -146 186 -189 181 -204 -3
-10 1 -30 10 -43 9 -13 25 -49 36 -79 17 -43 32 -62 75 -95 30 -23 59 -41 65
-41 9 0 271 170 294 191 6 5 -2 36 -19 75 l-28 67 59 56 59 56 5 -65 5 -65 78
-3 78 -3 -3 83 -3 83 -60 5 -60 5 157 160 c86 88 158 158 161 155 3 -3 -3 -32
-13 -64 -11 -33 -17 -63 -14 -68 3 -4 28 -8 55 -8 34 0 51 -5 55 -14 5 -13
-20 -160 -33 -194 -4 -9 0 -13 15 -10 18 3 252 288 252 308 0 11 -27 20 -61
20 -38 0 -38 10 12 133 47 114 65 143 55 84 -17 -91 33 -203 118 -267 25 -18
46 -39 46 -45 0 -6 -90 -64 -201 -130 -212 -126 -229 -141 -229 -210 0 -45 20
-85 60 -119 45 -38 71 -41 121 -15 91 45 412 237 466 277 18 13 44 48 59 78
22 44 25 63 21 99 -11 76 -40 119 -131 189 -86 67 -96 80 -96 121 0 49 8 56
47 37 34 -16 35 -16 86 13 72 39 406 237 495 292 l72 44 0 77 0 77 103 60 102
60 3 181 2 181 -107 65 c-131 79 -238 138 -250 138 -5 0 -42 -20 -83 -44 -41
-25 -76 -43 -78 -41 -6 6 86 220 95 219 4 0 33 -12 63 -26 64 -29 147 -51 161
-43 5 4 16 22 24 41 15 37 26 42 45 19 17 -21 26 -19 66 11 25 20 34 33 32 53
-3 42 19 74 48 67 20 -5 26 -1 39 30 18 43 20 84 4 84 -14 0 -3 49 17 71 14
16 19 75 8 103 -3 9 -15 16 -25 16 -22 0 -23 3 -7 48 13 33 12 35 -25 67 -21
19 -68 46 -105 61 -37 15 -71 31 -76 35 -7 6 52 44 173 111 l31 17 0 131 0
131 -35 20 c-33 20 -34 21 -19 45 9 13 23 24 30 24 8 0 33 17 55 37 29 26 49
37 66 35 40 -6 73 25 111 106 l37 77 0 155 c0 146 -1 158 -24 197 -25 44 -67
78 -133 109 l-38 18 88 46 87 47 3 327 2 326 -65 32 -66 33 -75 -40 c-42 -22
-79 -45 -84 -50 -10 -12 8 -73 28 -98 13 -15 7 -47 -10 -47 -5 0 -6 5 -3 10 3
6 4 10 1 10 -2 0 -25 -37 -50 -83 -52 -95 -67 -111 -121 -129 -34 -11 -44 -21
-67 -68 -78 -162 -1108 -2241 -1126 -2274 l-21 -39 29 -34 c17 -19 30 -43 30
-53 0 -34 -127 -275 -158 -302 -17 -14 -47 -28 -69 -31 l-38 -6 -222 -443
c-121 -244 -235 -462 -252 -485 -63 -87 -184 -114 -268 -60 -53 34 -74 63
-163 227 -110 204 -276 505 -381 690 -258 458 -252 445 -223 448 14 2 27 2 28
0 7 -8 318 -566 513 -918 l219 -395 58 -19 c57 -19 59 -19 103 0 25 10 58 35
74 54 15 19 130 240 254 490 125 250 229 456 230 458 2 2 22 5 44 6 23 2 51
12 63 22 28 25 139 251 132 269 -3 8 -23 15 -46 17 l-40 3 272 545 c150 300
327 657 394 794 66 137 220 452 342 700 l221 451 39 5 c21 3 44 9 50 13 15 9
94 170 94 191 0 12 -21 31 -58 51 -1 1 47 103 107 226 59 123 113 239 120 258
35 105 -16 218 -123 273 -52 27 -134 26 -209 -2 l-58 -22 -50 47 c-92 86 -108
89 -394 92 -185 2 -260 -1 -290 -11z m574 -164 c19 -9 36 -22 38 -28 2 -6 -34
-21 -84 -34 -128 -34 -239 -93 -284 -153 -19 -26 -80 -141 -134 -255 -54 -114
-186 -385 -294 -602 l-195 -395 0 -80 c-1 -102 14 -133 116 -244 43 -47 78
-88 78 -93 0 -7 -138 -289 -145 -296 -2 -2 -19 20 -37 50 -50 77 -142 163
-207 195 -104 50 -265 42 -383 -18 l-37 -19 43 93 c87 186 80 177 136 177 80
0 97 11 135 91 44 92 36 119 -37 119 -21 0 -38 3 -38 6 0 3 117 238 260 523
143 284 260 520 260 524 0 4 -20 7 -45 7 l-44 0 14 33 13 32 146 -4 145 -3 21
33 c11 19 26 51 32 73 16 53 -3 66 -99 66 l-74 0 36 69 c75 142 96 150 400
151 200 0 235 -2 264 -18z m391 -102 c11 -11 20 -30 20 -42 0 -12 -64 -152
-142 -310 l-142 -288 -37 0 c-44 0 -50 -6 -88 -95 -32 -75 -29 -95 15 -95 13
0 24 -2 24 -4 0 -2 -106 -219 -236 -482 -129 -264 -242 -493 -251 -511 -13
-27 -21 -32 -56 -35 l-42 -3 -57 -110 c-32 -60 -57 -116 -58 -122 0 -7 9 -13
19 -13 53 0 52 -7 -7 -126 -48 -96 -60 -113 -75 -108 -14 4 -18 2 -14 -7 2 -8
10 -13 16 -11 10 2 -73 -176 -88 -188 -3 -3 -7 -12 -9 -20 -2 -8 -7 -21 -12
-30 -8 -13 -10 -13 -15 3 -4 9 -2 24 4 31 10 11 8 16 -9 21 -13 4 -27 2 -34
-5 -8 -10 -7 -12 6 -7 23 8 33 -9 11 -18 -10 -3 -19 -1 -21 5 -7 20 -36 43
-40 31 -2 -6 -9 -8 -15 -4 -7 4 -6 -1 2 -11 11 -13 16 -14 22 -4 6 9 9 6 9
-10 0 -19 -3 -21 -20 -12 -10 6 -24 18 -29 28 -9 15 -10 14 -8 -7 1 -13 -4
-26 -10 -28 -9 -3 -12 5 -9 26 2 17 2 31 0 31 -4 0 -585 -1168 -826 -1658
l-100 -203 21 -49 c25 -57 26 -70 7 -70 -8 0 -29 29 -47 64 l-33 64 141 289
c78 158 307 621 509 1028 849 1715 1152 2329 1326 2695 77 162 150 305 161
318 30 32 116 71 160 72 24 0 44 -7 57 -20z m-302 -26 c3 -22 -24 -82 -181
-404 -52 -107 -166 -343 -255 -525 -204 -421 -361 -738 -371 -748 -4 -4 -40
26 -79 67 -79 83 -108 149 -96 216 4 19 71 166 149 325 229 467 415 852 415
861 0 23 68 107 108 134 52 34 244 101 282 97 17 -1 26 -9 28 -23z m-668 -129
c0 -4 -7 -20 -16 -37 -15 -30 -17 -30 -67 -24 -29 3 -69 6 -90 6 l-38 0 16 30
c15 30 16 30 105 30 50 0 90 -2 90 -5z m-3216 -265 c156 -40 301 -138 390
-263 24 -34 148 -249 276 -477 129 -228 244 -434 258 -458 18 -32 20 -41 8
-36 -9 3 -13 10 -10 15 3 5 -2 9 -11 9 -11 0 -15 6 -10 19 6 20 -18 46 -35 36
-5 -3 -10 -1 -10 4 0 6 5 11 10 11 6 0 10 5 10 11 0 5 -5 7 -12 3 -7 -5 -8 -3
-3 6 6 10 3 12 -13 8 -18 -5 -20 -3 -12 16 6 17 5 23 -5 23 -8 0 -12 -4 -9 -9
3 -4 -2 -15 -10 -24 -10 -10 -16 -11 -16 -4 0 7 -6 10 -14 7 -8 -3 -20 1 -26
9 -10 12 -7 13 18 10 22 -2 29 0 25 10 -6 17 -23 18 -24 2 0 -10 -2 -10 -6 0
-4 10 -8 10 -19 1 -8 -6 -14 -8 -14 -4 0 4 -7 2 -15 -5 -12 -10 -15 -10 -15 4
0 19 -16 21 -26 4 -4 -6 -3 -8 2 -5 6 3 15 -3 21 -13 10 -15 9 -19 -8 -23 -10
-3 -19 -10 -19 -17 0 -6 4 -8 10 -5 6 3 7 -1 4 -10 -6 -14 -8 -14 -19 2 -7 10
-11 21 -9 25 3 4 -2 5 -10 2 -18 -7 -20 4 -6 26 8 12 10 12 10 1 0 -8 3 -12 6
-8 10 10 -6 26 -21 21 -8 -4 -13 -10 -10 -14 3 -4 -2 -13 -9 -19 -10 -9 -16
-9 -21 -1 -4 7 -11 8 -18 1 -7 -5 -27 -7 -45 -5 -22 2 -35 -1 -38 -10 -3 -8
-13 -17 -22 -21 -13 -5 -14 -3 -5 6 6 6 9 18 6 25 -4 12 -8 12 -21 2 -12 -10
-16 -10 -19 -1 -2 7 -10 10 -16 7 -7 -2 -13 6 -13 21 -1 14 2 22 7 19 10 -6
12 9 2 19 -9 9 -43 -22 -43 -40 0 -7 4 -13 10 -13 5 0 7 8 3 18 -4 10 -2 14 3
9 5 -5 9 -22 10 -38 2 -28 1 -29 -15 -10 -13 15 -21 17 -35 9 -20 -11 -31 -5
-21 12 4 6 14 9 22 6 11 -4 13 -1 8 14 -4 11 -2 20 4 20 6 0 11 6 11 13 -1 6
-11 -1 -24 -16 -15 -19 -28 -26 -39 -21 -9 3 -17 2 -17 -4 0 -6 6 -12 13 -15
6 -2 9 -8 5 -12 -4 -4 -14 -2 -23 5 -12 10 -15 10 -15 -4 0 -9 -4 -16 -10 -16
-16 0 -11 27 6 34 9 4 14 9 11 13 -4 3 -2 12 3 18 8 9 6 14 -6 19 -24 9 -37
-3 -22 -22 11 -13 11 -14 -2 -10 -8 3 -22 2 -31 -3 -8 -4 -22 -3 -30 2 -13 8
-11 10 20 13 8 0 16 7 19 15 3 10 0 12 -12 8 -10 -4 -15 -3 -11 3 3 6 14 10
23 10 13 0 14 2 4 8 -7 5 -10 16 -7 25 5 12 2 14 -14 10 -12 -3 -21 -10 -21
-15 0 -5 5 -6 10 -3 6 3 10 1 10 -4 0 -17 -18 -13 -30 7 -8 12 -13 13 -16 5
-3 -7 -11 -13 -16 -13 -6 0 -9 3 -5 6 3 3 -3 14 -14 25 -22 22 -24 36 -6 42 6
2 5 3 -4 2 -12 -2 -68 87 -200 317 -244 425 -249 434 -249 474 0 71 45 136
105 153 51 15 139 12 219 -9z m702 -7 c58 -31 103 -85 162 -195 29 -52 52 -98
52 -102 0 -3 -35 -6 -78 -6 -47 0 -83 -5 -90 -12 -30 -30 7 -153 50 -163 13
-3 70 -6 128 -8 l104 -2 59 -100 c33 -55 119 -206 192 -335 73 -129 165 -291
204 -360 39 -68 71 -128 71 -132 0 -5 -25 -8 -55 -8 -65 0 -84 -20 -66 -73 21
-59 36 -67 125 -67 l82 0 116 -207 c64 -115 180 -323 258 -463 78 -140 181
-322 227 -404 l86 -148 -28 -58 c-21 -44 -32 -57 -44 -52 -13 5 -14 3 -4 -9
17 -22 -52 -159 -81 -160 -21 0 -21 -1 -1 -9 11 -5 14 -9 7 -9 -7 -1 -10 -7
-7 -13 4 -7 -1 -4 -9 7 -9 11 -14 25 -12 32 5 13 -19 43 -35 43 -5 0 -9 -7 -9
-16 0 -10 6 -14 15 -10 8 3 15 1 15 -4 0 -6 -7 -10 -15 -10 -9 0 -12 -6 -8
-17 3 -10 3 -15 -1 -12 -4 4 -9 17 -11 29 -5 28 -16 39 -22 23 -12 -34 -41 3
-147 195 -64 114 -183 326 -264 472 l-149 265 29 3 c17 2 35 13 45 28 15 24
14 28 -21 97 -49 94 -65 107 -131 107 l-54 0 -77 138 c-42 75 -99 176 -127
225 l-49 87 -43 0 c-40 0 -43 2 -68 49 -15 27 -27 51 -27 55 0 3 14 6 30 6 17
0 30 4 30 9 0 19 -589 1047 -636 1110 -48 64 -146 146 -219 185 l-50 26 255
-3 c240 -2 257 -3 296 -24z m3734 -121 c0 -4 -39 -28 -86 -52 -83 -43 -87 -44
-100 -25 -8 11 -13 24 -11 29 2 6 34 27 72 47 65 36 70 37 97 23 15 -8 28 -18
28 -22z m33 -52 c-3 -11 -10 -17 -15 -14 -5 4 -2 -8 6 -25 14 -26 15 -54 10
-183 -4 -84 -8 -155 -10 -157 -2 -2 -4 73 -4 167 0 196 4 189 -85 145 -51 -25
-55 -30 -56 -63 -2 -91 -15 -99 -22 -13 -3 38 -2 69 1 71 4 1 43 22 87 46 95
52 95 51 88 26z m-43 -300 l0 -220 -32 -20 c-18 -11 -36 -20 -40 -20 -5 0 -8
101 -8 224 l0 223 38 16 c20 8 38 15 40 16 1 1 2 -98 2 -219z m-350 198 c0 -7
-9 -28 -20 -45 l-20 -33 -84 0 -85 0 16 38 c8 20 17 40 20 45 2 4 42 7 89 7
60 0 84 -3 84 -12z m-2854 -113 c7 -19 14 -37 14 -40 0 -3 -94 -5 -210 -5
-115 0 -210 2 -210 4 0 2 -7 20 -15 40 l-15 36 210 0 211 0 15 -35z m-1783
-178 c78 -68 169 -146 202 -174 33 -28 125 -105 205 -172 80 -67 146 -125 148
-130 3 -9 -43 -31 -66 -31 -16 1 -135 100 -488 405 -76 67 -156 134 -176 150
-21 17 -38 33 -38 37 0 6 49 32 68 37 2 1 67 -55 145 -122z m4864 51 c-3 -7
-5 -2 -5 12 0 14 2 19 5 13 2 -7 2 -19 0 -25z m11 -128 c2 -67 0 -110 -6 -110
-6 0 -10 46 -11 110 0 61 3 110 7 110 4 0 9 -49 10 -110z m-4832 -101 c66 -57
180 -156 252 -219 l132 -115 0 -67 c0 -38 -3 -68 -6 -68 -4 0 -50 40 -103 88
-98 90 -388 345 -475 417 l-49 40 8 63 7 62 56 -49 c32 -26 111 -95 178 -152z
m4569 88 l39 -34 -32 -16 c-18 -8 -30 -12 -27 -7 3 5 0 12 -6 16 -8 4 -9 3 -5
-4 4 -7 2 -12 -4 -12 -6 0 -8 -4 -5 -10 6 -9 -8 -14 -27 -11 -5 0 -8 -3 -8 -9
0 -8 -51 -40 -65 -40 -3 0 6 23 21 52 20 40 28 48 36 37 8 -11 8 -10 4 5 -6
19 17 66 33 66 4 0 25 -15 46 -33z m55 -194 l-1 -128 -167 -97 c-91 -53 -168
-96 -169 -94 -2 1 -4 27 -4 57 -1 47 6 69 49 155 l51 102 113 65 c62 36 116
66 121 66 4 1 7 -56 7 -126z m321 86 c-12 -10 -29 -15 -38 -12 -13 5 -14 8 -4
11 8 3 23 14 34 25 16 16 22 17 25 7 3 -7 -5 -22 -17 -31z m-261 -23 c0 -8 -4
-17 -9 -21 -12 -7 -24 12 -16 25 9 15 25 12 25 -4z m115 -95 c11 -1 33 -8 49
-15 l30 -12 -75 -36 c-40 -19 -75 -34 -76 -33 -2 1 6 19 17 41 10 21 19 33 20
26 0 -7 5 -10 10 -7 7 4 7 12 0 25 -12 22 -13 40 -2 25 4 -5 16 -12 27 -14z
m-1781 -139 c3 -5 -6 -27 -20 -50 l-25 -42 -125 0 -124 0 15 37 c9 20 20 42
25 48 12 14 246 20 254 7z m-2486 -87 c-1 -13 -8 -27 -16 -30 -7 -2 -10 0 -7
5 3 6 2 10 -4 10 -5 0 -13 -4 -16 -10 -9 -14 -25 -12 -25 3 0 10 44 40 67 46
2 1 2 -10 1 -24z m737 -2 c-3 -10 0 -14 7 -11 7 3 21 -4 31 -14 14 -15 14 -18
2 -18 -8 0 -15 4 -15 9 0 4 -12 8 -27 7 -17 -1 -28 4 -27 12 3 38 5 41 20 35
8 -3 13 -12 9 -20z m3741 -170 c-12 -30 -34 -12 -39 33 -2 25 -15 60 -28 77
-14 19 -18 32 -11 35 6 2 26 13 44 26 l33 22 3 -90 c1 -49 1 -95 -2 -103z
m-4192 149 c2 -4 -5 -9 -17 -9 -17 -2 -19 0 -7 7 18 12 18 12 24 2z m41 -10
c-3 -3 -11 0 -18 7 -9 10 -8 11 6 5 10 -3 15 -9 12 -12z m235 14 c0 -2 -6 -9
-13 -15 -10 -8 -14 -7 -14 4 0 8 6 15 14 15 7 0 13 -2 13 -4z m52 -8 c-9 -9
-15 -9 -24 0 -9 9 -7 12 12 12 19 0 21 -3 12 -12z m-99 -13 c-3 -9 -8 -14 -10
-11 -3 3 -2 9 2 15 9 16 15 13 8 -4z m3403 -1 c-3 -9 -6 -21 -6 -28 0 -7 -7
-21 -15 -32 -14 -18 -14 -18 -15 4 0 14 4 21 11 16 8 -4 9 0 4 15 -4 13 -2 21
5 21 6 0 8 5 5 10 -3 6 -1 10 5 10 7 0 9 -7 6 -16z m-196 -15 c0 -11 -4 -18
-10 -14 -5 3 -7 12 -3 20 7 21 13 19 13 -6z m-3440 7 c0 -3 -4 -8 -10 -11 -5
-3 -10 -1 -10 4 0 6 5 11 10 11 6 0 10 -2 10 -4z m4096 -19 c31 -27 43 -103
25 -159 -29 -87 -122 -153 -181 -128 -107 44 -13 305 112 309 9 1 29 -9 44
-22z m-3636 -7 c0 -5 -5 -10 -11 -10 -5 0 -7 5 -4 10 3 6 8 10 11 10 2 0 4 -4
4 -10z m-1226 -133 c59 -35 109 -67 109 -72 0 -6 -50 -38 -111 -73 -86 -48
-117 -61 -136 -56 -15 3 -23 11 -19 17 3 6 1 7 -5 3 -6 -4 -22 0 -34 7 -13 8
-56 34 -96 57 l-74 42 119 69 c65 38 122 69 128 69 5 -1 59 -29 119 -63z m361
-98 c0 -17 -6 -24 -20 -24 -23 0 -33 34 -13 46 20 13 33 5 33 -22z m4215 24
c0 -5 -5 -15 -10 -23 -8 -12 -10 -11 -10 8 0 12 5 22 10 22 6 0 10 -3 10 -7z
m-412 -43 c41 -25 39 -47 -5 -73 l-33 -19 -11 29 c-6 15 -13 40 -16 56 -7 34
16 36 65 7z m-4028 -129 c0 -124 -2 -140 -17 -145 -10 -3 -63 -31 -117 -61
-55 -30 -100 -54 -102 -52 -1 1 -4 59 -8 128 l-7 126 118 71 c65 38 121 70
126 71 4 1 7 -62 7 -138z m2144 75 l15 -24 -82 -6 c-45 -3 -120 -2 -167 2 -68
6 -85 10 -88 24 -4 19 25 22 214 26 87 2 93 1 108 -22z m2516 -9 c0 -2 -16
-18 -35 -37 -19 -19 -35 -28 -35 -22 0 16 45 62 60 62 5 0 10 -1 10 -3z
m-1625 -27 c10 -11 16 -20 13 -20 -3 0 -13 9 -23 20 -10 11 -16 20 -13 20 3 0
13 -9 23 -20z m904 -117 c16 -57 15 -60 -33 -76 l-44 -15 -11 26 c-20 53 -18
65 19 84 50 25 58 22 69 -19z m-3731 -6 c49 -13 85 -46 76 -70 -3 -9 -12 -13
-19 -11 -7 3 -16 0 -21 -7 -4 -7 -3 -10 4 -5 6 3 13 2 16 -3 4 -5 2 -12 -2
-15 -9 -5 -132 115 -132 129 0 4 8 4 18 0 9 -3 36 -12 60 -18z m4174 -2 c44
-20 60 -23 86 -15 25 7 39 5 62 -8 17 -9 30 -19 30 -22 -1 -3 -41 -28 -89 -56
l-89 -51 -78 44 c-44 25 -83 48 -87 52 -6 6 90 77 109 81 1 0 26 -11 56 -25z
m198 -174 c0 -67 -4 -102 -12 -108 -7 -5 -48 -29 -90 -52 l-78 -42 0 99 0 98
83 51 c45 28 85 52 90 52 4 1 7 -43 7 -98z m-4416 43 c8 -21 -1 -34 -24 -34
-19 0 -34 25 -24 41 9 15 41 10 48 -7z m90 -142 c3 -5 -8 -28 -25 -53 -35 -54
-35 -56 -4 -71 14 -6 25 -15 25 -20 0 -9 -81 -70 -87 -64 -2 2 2 16 9 31 11
24 10 29 -10 45 -12 10 -22 21 -22 25 0 3 18 30 40 60 38 51 62 66 74 47z
m589 -19 c14 -8 7 -20 -18 -31 -38 -18 -45 -15 -45 18 0 28 2 30 28 24 15 -4
30 -9 35 -11z m1003 -34 c14 -28 23 -53 20 -57 -5 -4 -174 -6 -322 -3 -50 1
-51 2 -77 50 -15 27 -27 51 -27 55 0 3 85 6 190 6 l190 0 26 -51z m1924 -35
c0 -11 -13 -8 -52 12 -64 32 -62 30 -55 49 5 13 15 10 57 -16 27 -17 50 -37
50 -45z m184 33 c9 -14 7 -21 -7 -32 -25 -18 -47 -9 -47 19 0 40 32 48 54 13z
m-3344 -17 c0 -27 -19 -35 -38 -16 -16 16 -16 18 2 31 22 17 36 11 36 -15z
m69 -9 c16 -15 27 -32 23 -36 -4 -3 -2 -5 3 -4 6 2 21 -3 34 -10 16 -9 40 -11
75 -7 28 4 59 8 68 9 9 1 14 5 12 9 -3 4 1 8 9 8 24 0 28 -38 6 -53 -10 -8
-16 -17 -12 -21 4 -4 -3 -9 -15 -13 -12 -3 -22 -12 -22 -20 0 -8 4 -12 9 -8 5
3 12 1 15 -4 4 -5 -2 -11 -11 -13 -10 -3 -34 10 -56 29 -84 74 -197 16 -197
-102 0 -43 21 -87 64 -135 29 -32 29 -33 3 -10 -20 17 -28 20 -27 10 5 -34 1
-41 -19 -31 -11 7 -30 7 -50 1 -26 -7 -33 -5 -46 13 -13 18 -13 23 0 37 19 21
19 34 -1 76 -12 25 -23 34 -40 34 -21 0 -24 5 -24 35 0 31 3 35 25 35 36 0 49
52 24 102 -23 46 -10 57 31 26 29 -21 33 -21 58 -7 21 12 27 22 26 47 -1 18 0
32 1 32 2 0 17 -13 34 -29z m3075 -81 c-3 -14 -7 -26 -9 -28 -4 -4 -125 68
-125 74 0 3 4 14 10 24 9 17 13 16 70 -14 55 -28 60 -34 54 -56z m361 -35 c70
-39 92 -59 75 -70 -6 -4 -17 -1 -25 5 -12 10 -17 7 -27 -16 -7 -16 -13 -31
-14 -32 -6 -9 -144 81 -144 93 0 19 9 19 32 -2 14 -12 21 -14 30 -5 9 9 7 16
-5 30 -40 44 -3 43 78 -3z m304 -36 c-18 -35 -43 -20 -27 17 9 18 14 21 24 13
10 -8 11 -16 3 -30z m71 -14 c0 -33 44 -63 65 -45 23 19 31 4 18 -31 -14 -37
1 -79 28 -79 26 0 32 -30 10 -54 -25 -27 -36 -87 -22 -115 14 -26 -3 -65 -24
-57 -28 10 -88 -86 -71 -113 11 -18 -31 -33 -53 -19 -29 18 -74 0 -81 -32 -9
-38 -45 -34 -45 5 0 25 -5 31 -34 39 -30 9 -36 7 -53 -14 -32 -40 -46 -3 -16
42 24 35 23 53 -7 76 -31 25 -32 63 -4 102 18 23 20 36 15 72 -9 62 -1 81 35
73 24 -6 31 -2 49 27 11 18 20 45 20 59 0 37 24 56 45 35 28 -28 65 -13 90 35
18 33 35 30 35 -6z m-161 16 c19 -12 -21 -25 -50 -16 -17 6 -19 9 -8 16 8 5
21 9 29 9 8 0 21 -4 29 -9z m-1059 -11 c0 -5 -5 -10 -11 -10 -5 0 -7 5 -4 10
3 6 8 10 11 10 2 0 4 -4 4 -10z m1270 -5 c10 -12 10 -15 -4 -15 -9 0 -16 7
-16 15 0 8 2 15 4 15 2 0 9 -7 16 -15z m-647 -43 l27 -19 -60 -16 c-72 -20
-70 -20 -70 -3 0 12 52 52 70 55 3 1 17 -7 33 -17z m386 9 c12 -8 12 -14 1
-40 -16 -40 -22 -43 -56 -31 l-27 11 21 15 c12 8 22 24 22 35 0 20 16 24 39
10z m-624 -63 c-4 -18 -27 -51 -51 -75 -46 -47 -114 -171 -114 -209 0 -29 36
-52 54 -34 8 9 8 14 -1 17 -7 3 -13 14 -13 25 0 31 58 142 91 174 l29 28 0
-32 c0 -18 -16 -63 -36 -102 -19 -38 -42 -104 -51 -145 -15 -77 -12 -113 23
-225 7 -24 6 -23 -41 11 -63 45 -67 63 -63 264 3 156 4 161 31 204 36 54 114
131 134 131 11 0 13 -7 8 -32z m82 -28 c15 -30 17 -96 2 -105 -5 -4 -21 -4
-35 -1 -21 6 -24 12 -24 49 0 86 28 114 57 57z m264 18 c80 -27 125 -86 136
-178 6 -52 -4 -160 -15 -160 -4 0 -7 35 -7 78 0 66 -4 84 -27 124 -50 85 -146
110 -245 63 -54 -25 -59 -22 -47 21 5 19 39 39 94 58 27 8 77 6 111 -6z
m-2965 -32 c0 -13 -5 -22 -10 -18 -5 3 -6 -2 -3 -12 4 -10 3 -15 -3 -11 -6 4
-7 -7 -4 -27 4 -23 3 -29 -4 -19 -5 7 -14 11 -19 8 -5 -3 -9 4 -10 16 0 12 1
16 4 10 7 -19 19 -16 20 5 3 43 8 60 15 56 4 -3 8 0 8 5 0 6 2 11 4 11 2 0 3
-11 2 -24z m3147 -23 c-5 -13 -43 -19 -43 -6 0 3 8 15 17 25 18 20 36 7 26
-19z m-3756 -4 c32 -19 68 -50 86 -75 26 -38 34 -42 59 -37 35 7 71 -21 63
-48 -4 -12 3 -23 25 -35 26 -16 30 -24 30 -59 0 -39 -1 -41 -78 -84 -42 -25
-110 -64 -150 -89 l-73 -43 -187 104 c-259 145 -252 141 -249 150 3 9 397 245
411 246 5 1 33 -13 63 -30z m509 -28 c-3 -5 -14 -11 -24 -14 -17 -4 -18 -1 -9
23 9 24 13 26 24 14 8 -8 12 -18 9 -23z m2134 23 c0 -2 -7 -4 -15 -4 -8 0 -15
4 -15 10 0 5 7 7 15 4 8 -4 15 -8 15 -10z m-26 -39 c-4 -8 -13 -15 -21 -15
-13 0 -13 -3 -3 -15 11 -13 10 -14 -4 -9 -18 7 -18 7 -10 28 3 9 10 13 15 10
5 -3 9 0 9 5 0 6 4 11 10 11 5 0 7 -7 4 -15z m966 0 c36 -19 60 -62 60 -108 0
-45 -25 -57 -33 -17 -9 42 -63 98 -102 106 -74 13 -177 -67 -212 -165 -19 -53
-40 -71 -28 -23 20 81 97 176 168 207 43 19 111 19 147 0z m-3070 -15 c0 -11
-5 -20 -11 -20 -5 0 -7 5 -4 10 3 6 0 10 -7 10 -9 0 -9 3 2 10 20 13 20 13 20
-10z m2150 10 c0 -5 -5 -10 -11 -10 -5 0 -7 5 -4 10 3 6 8 10 11 10 2 0 4 -4
4 -10z m1097 -16 c3 -8 1 -20 -4 -25 -7 -7 -12 -2 -15 15 -6 28 9 36 19 10z
m-3293 -2 c3 -5 -1 -9 -9 -9 -8 0 -12 4 -9 9 3 4 7 8 9 8 2 0 6 -4 9 -8z m183
1 c-10 -9 44 -35 62 -28 12 4 12 2 -1 -9 -10 -7 -18 -18 -18 -25 0 -6 -5 -11
-11 -11 -5 0 -7 5 -3 12 5 8 2 9 -10 5 -10 -4 -15 -3 -11 3 3 6 1 10 -5 10 -6
0 -8 5 -5 10 3 6 1 10 -4 10 -6 0 -11 7 -11 15 0 8 5 15 12 15 6 0 8 -3 5 -7z
m2361 -665 c-20 -12 -84 -9 -95 5 -6 6 -8 21 -5 32 6 26 16 386 10 415 -1 8
20 59 47 113 l50 98 3 -327 c2 -256 -1 -329 -10 -336z m-264 637 c-4 -8 -11
-12 -16 -9 -6 4 -5 10 3 15 19 12 19 11 13 -6z m-2358 -20 c-17 -18 -30 -20
-20 -4 5 8 -1 10 -19 7 -15 -3 -24 -1 -21 3 3 5 21 9 40 9 32 0 34 -2 20 -15z
m147 -61 c-7 -6 -10 -14 -6 -18 4 -4 -1 -4 -11 0 -13 5 -17 4 -13 -3 4 -7 0
-10 -10 -9 -10 2 -17 7 -16 12 1 5 -4 16 -10 24 -6 8 -1 6 12 -5 20 -16 23
-17 18 -4 -3 9 0 22 6 28 8 8 7 11 -6 11 -9 0 -17 5 -17 10 0 6 7 10 15 10 8
0 15 6 15 13 0 6 8 -4 18 -23 15 -28 16 -37 5 -46z m2742 39 c-44 -65 -68
-156 -63 -237 3 -39 12 -85 21 -103 25 -47 80 -85 131 -90 25 -3 47 -12 50
-19 9 -25 -102 -18 -149 9 -112 64 -135 292 -43 445 15 24 27 32 49 32 l30 0
-26 -37z m271 6 c26 -28 30 -116 9 -179 -20 -61 -79 -125 -123 -135 -43 -9
-90 18 -109 62 -38 93 37 253 129 272 44 9 73 3 94 -20z m-3186 -4 c10 -12 10
-15 -4 -15 -9 0 -16 7 -16 15 0 8 2 15 4 15 2 0 9 -7 16 -15z m355 5 c3 -5 1
-10 -4 -10 -6 0 -11 5 -11 10 0 6 2 10 4 10 3 0 8 -4 11 -10z m1985 0 c0 -5
-5 -10 -11 -10 -5 0 -7 5 -4 10 3 6 8 10 11 10 2 0 4 -4 4 -10z m14 -25 c-4
-8 -11 -12 -16 -9 -6 4 -5 10 3 15 19 12 19 11 13 -6z m-2156 -37 c-2 -7 3
-12 11 -10 11 2 12 0 3 -11 -7 -8 -9 -17 -5 -21 4 -4 -1 -4 -11 0 -13 5 -17 4
-12 -4 10 -17 -10 -24 -24 -8 -9 12 -7 17 9 26 12 6 20 14 20 18 -2 12 1 22 6
22 3 0 4 -6 3 -12z m-220 -34 c20 -6 22 -12 22 -75 0 -37 -5 -71 -10 -74 -8
-5 -7 -11 0 -20 18 -22 13 -926 -5 -943 -2 -2 -13 1 -24 8 -20 10 -21 18 -21
218 -1 114 -3 354 -6 535 -3 180 -3 334 0 342 6 17 11 17 44 9z m3420 -51 c-2
-9 -8 -18 -15 -20 -7 -3 -9 3 -6 16 6 25 26 28 21 4z m-491 -28 c0 -8 -4 -15
-9 -15 -10 0 -11 14 -1 23 9 10 10 9 10 -8z m422 8 c0 -5 -4 -17 -9 -28 -8
-17 -8 -16 -7 8 1 15 5 27 9 27 4 0 8 -3 7 -7z m-3430 -157 c-2 -111 -4 -123
-19 -119 -11 3 -25 -5 -35 -19 -10 -12 -15 -16 -12 -6 6 18 -29 33 -39 17 -3
-5 -11 -6 -17 -2 -7 4 -6 -1 2 -11 11 -13 16 -14 22 -4 4 7 11 9 16 5 16 -17
-21 -25 -43 -10 -18 11 -27 12 -44 3 -11 -6 -24 -8 -29 -5 -5 3 -13 -4 -16
-15 -4 -12 -18 -26 -31 -32 -14 -7 -23 -17 -20 -25 3 -7 1 -13 -4 -13 -14 0
-22 60 -17 130 l4 62 139 83 c76 46 140 84 142 84 2 1 2 -55 1 -123z m3591 69
c0 -8 -7 -15 -15 -15 -8 0 -15 7 -15 15 0 8 7 15 15 15 8 0 15 -7 15 -15z
m-4200 -65 c121 -62 202 -199 203 -345 1 -108 -37 -163 -117 -172 -129 -15
-284 159 -294 329 -6 94 4 132 42 173 29 30 40 35 80 35 27 0 63 -8 86 -20z
m1004 -3 c9 -15 7 -21 -8 -32 -35 -26 -74 13 -44 43 16 16 38 12 52 -11z
m2940 -16 c3 -5 -1 -14 -8 -20 -10 -9 -16 -9 -21 -1 -4 6 -1 9 7 8 7 -2 12 3
11 10 -3 14 3 16 11 3z m282 -133 c52 -28 93 -52 91 -54 -24 -22 -192 -112
-200 -107 -5 3 -7 2 -4 -3 3 -6 -31 -32 -76 -59 -45 -27 -93 -56 -107 -64 -13
-9 -21 -11 -17 -5 4 7 -2 12 -18 12 -21 0 -24 -4 -19 -21 4 -12 2 -17 -4 -13
-6 3 -13 0 -16 -6 -4 -7 -4 -3 -2 9 2 13 0 26 -5 29 -5 3 -9 1 -9 -3 0 -5 -9
-9 -20 -9 -11 0 -20 4 -20 8 0 4 -5 8 -11 8 -5 0 -7 -6 -3 -12 4 -7 3 -9 -1
-5 -11 10 -16 39 -6 32 4 -2 9 18 10 45 1 35 -3 51 -14 57 -11 7 3 18 57 48
40 21 119 67 177 102 57 35 108 63 114 63 5 0 52 -23 103 -52z m-3106 26 c11
-12 10 -18 -3 -32 -16 -15 -18 -15 -33 0 -19 18 -12 48 9 48 8 0 20 -7 27 -16z
m2434 -7 c16 -12 18 -26 14 -121 -3 -104 -5 -109 -31 -132 -34 -29 -49 -29
-104 -4 -34 15 -43 24 -43 45 0 30 -2 29 45 10 54 -23 75 -13 76 38 1 23 3 62
4 87 2 25 3 55 4 68 1 25 10 28 35 9z m-2958 -11 c8 -8 14 -23 13 -33 0 -10
-3 -13 -6 -5 -2 6 -11 12 -19 12 -8 0 -14 9 -14 20 0 24 6 25 26 6z m-136 -40
c0 -2 -7 -7 -16 -10 -8 -3 -12 -2 -9 4 6 10 25 14 25 6z m3947 -72 c30 -17 43
-30 39 -41 -3 -8 -6 -78 -6 -155 0 -124 -2 -139 -15 -128 -10 9 -15 9 -15 1 0
-6 -5 -11 -11 -11 -8 0 -7 5 2 16 10 12 10 17 0 23 -9 6 -9 15 -1 35 18 47 13
123 -10 146 -23 23 -33 24 -61 10 -35 -19 -49 -63 -48 -155 1 -47 -1 -89 -5
-92 -3 -3 -6 11 -6 33 0 96 -6 106 -86 153 -41 24 -72 46 -69 50 17 17 222
140 234 140 8 1 34 -11 58 -25z m-2959 -129 c35 -33 73 -73 84 -89 l21 -29
-26 18 c-14 9 -30 14 -35 11 -10 -6 -49 39 -122 139 -49 68 -37 60 78 -50z
m2258 69 c28 -16 44 -33 44 -45 0 -29 -40 -24 -89 12 -35 25 -40 33 -31 45 17
19 25 18 76 -12z m-2652 0 c13 -5 16 -26 16 -124 0 -110 -1 -119 -20 -125 -11
-3 -29 -3 -40 0 -18 6 -20 15 -20 95 0 89 11 138 33 152 15 9 12 9 31 2z
m2296 -24 c0 -16 -51 -24 -60 -10 -6 10 -9 9 -13 -1 -4 -10 -6 -9 -6 4 -1 13
7 17 39 17 22 0 40 -4 40 -10z m-963 -39 c0 -11 -5 -18 -9 -15 -4 3 -5 11 -1
19 7 21 12 19 10 -4z m1993 -53 c0 -40 -27 -101 -42 -96 -21 7 -22 107 -2 129
22 25 44 8 44 -33z m-1010 -38 c0 -79 -1 -81 -27 -91 -17 -6 -40 -7 -57 -2
-29 8 -29 9 -30 85 l-1 77 45 4 c25 2 51 4 58 5 9 2 12 -20 12 -78z m808 18
c12 -6 22 -14 22 -17 0 -5 -354 -213 -506 -297 l-50 -28 -58 33 c-31 18 -55
38 -54 43 2 6 87 59 188 118 102 59 223 130 269 158 l85 51 40 -25 c23 -14 51
-30 64 -36z m-2948 -89 l0 -132 -22 28 c-11 15 -25 46 -29 69 -6 34 -4 48 17
83 13 23 24 51 24 62 0 12 2 21 5 21 3 0 5 -59 5 -131z m2327 104 c-4 -3 -1
-13 5 -22 10 -13 10 -14 -2 -3 -8 6 -18 12 -23 12 -4 0 -5 -6 -1 -12 4 -7 4
-10 -1 -6 -5 5 -14 -1 -22 -12 -8 -11 -21 -20 -29 -20 -26 0 -15 18 29 44 42
25 56 31 44 19z m-457 -63 c0 -9 -14 -14 -32 -11 -5 0 -8 -4 -8 -11 0 -6 -8
-20 -17 -31 -16 -19 -16 -20 -1 -14 9 3 22 0 28 -8 9 -11 6 -16 -12 -25 -22
-11 -22 -10 -4 4 11 9 18 16 15 17 -29 5 -49 4 -49 -4 0 -6 -2 -8 -5 -5 -3 3
1 20 9 39 9 19 15 30 16 24 0 -5 7 1 16 13 15 22 44 30 44 12z m1120 -384
c-12 -12 -50 -16 -50 -4 0 5 -5 6 -11 3 -6 -5 -6 0 1 12 9 14 10 51 4 138 -8
109 -11 120 -29 122 -11 2 -101 -44 -200 -101 l-180 -105 -3 -140 c-2 -115 -5
-141 -17 -141 -9 0 -12 6 -9 15 4 8 2 15 -4 15 -5 0 -12 -9 -15 -20 -7 -27
-26 -25 -36 2 -4 12 -9 77 -10 143 l-2 121 52 28 c88 49 493 287 504 297 14
14 19 -371 5 -385z m-1274 349 c-20 -15 -36 -19 -36 -10 0 5 38 23 50 24 3 0
-4 -6 -14 -14z m188 -11 c3 -8 2 -12 -4 -9 -6 3 -10 10 -10 16 0 14 7 11 14
-7z m-2045 -149 c0 -55 -3 -118 -7 -140 -7 -36 -10 -40 -40 -43 -27 -3 -32 0
-32 17 0 12 -6 20 -12 19 -10 -2 -14 28 -16 122 l-3 125 56 0 55 0 -1 -100z
m1847 89 c-9 -6 -13 -13 -10 -16 9 -10 -25 -80 -36 -73 -13 8 -13 46 0 79 7
20 16 25 35 24 22 -2 24 -4 11 -14z m-1576 -2 c0 -8 -82 -92 -90 -92 -3 0 -3
22 -2 50 l4 50 44 0 c24 0 44 -4 44 -8z m1605 -13 c-5 -15 -4 -19 4 -15 6 4
11 3 11 -2 0 -5 -11 -14 -25 -20 l-24 -11 16 34 c19 39 28 46 18 14z m395 -41
c0 -102 -9 -135 -36 -141 -13 -2 -21 0 -18 4 3 5 0 9 -5 9 -6 0 -11 8 -10 18
0 10 3 12 6 5 2 -7 11 -13 20 -13 12 0 12 2 -1 16 -12 11 -16 36 -16 90 l0 74
30 0 30 0 0 -62z m-103 -10 c-2 -13 -4 -3 -4 22 0 25 2 35 4 23 2 -13 2 -33 0
-45z m-167 -137 c0 -99 -4 -182 -8 -185 -5 -3 -16 8 -26 25 -9 16 -21 29 -27
29 -5 0 -9 58 -9 138 l0 137 28 17 c15 9 30 17 35 17 4 1 7 -80 7 -178z m1187
117 c-3 -7 -5 -2 -5 12 0 14 2 19 5 13 2 -7 2 -19 0 -25z m-1274 -351 c9 -6 9
-10 1 -13 -7 -3 -10 -14 -7 -24 3 -11 0 -20 -6 -20 -6 0 -11 -6 -11 -14 0 -15
-47 -76 -58 -76 -4 0 -13 4 -20 9 -10 6 -8 18 12 56 25 47 26 54 26 237 0 187
0 189 23 197 l22 8 3 -175 c2 -125 6 -179 15 -185z m-1380 247 c18 -12 18 -13
-5 -27 -131 -83 -193 -117 -205 -113 -22 9 -203 117 -203 121 0 3 26 18 58 35
31 16 81 43 111 59 l54 30 86 -46 c47 -26 94 -52 104 -59z m2467 7 l0 -59
-117 -68 c-65 -37 -130 -76 -145 -86 -41 -29 -48 -23 -48 40 l0 58 148 86 c81
47 150 87 155 87 4 1 7 -26 7 -58z m-567 4 c-7 -21 -12 -19 -10 4 0 11 5 18 9
15 4 -3 5 -11 1 -19z m-2470 -173 c53 -47 97 -90 97 -95 0 -26 -45 -78 -86
-97 -50 -25 -89 -22 -141 10 -51 31 -61 60 -63 200 -1 69 -2 131 -1 138 0 8
21 -4 49 -29 26 -23 91 -80 145 -127z m2517 164 c0 -2 -8 -10 -17 -17 -16 -13
-17 -12 -4 4 13 16 21 21 21 13z m-286 -18 c-4 -7 -14 -22 -23 -33 -11 -14 -7
-12 12 4 17 16 27 20 27 11 0 -9 7 -7 22 6 17 14 20 15 9 2 -7 -9 -10 -21 -7
-26 7 -11 -38 -55 -47 -45 -4 3 -7 1 -7 -6 0 -7 -4 -10 -9 -7 -5 4 -11 1 -13
-6 -3 -8 -9 -8 -24 1 -15 10 -15 11 -1 7 19 -6 21 2 8 23 -6 9 1 24 23 47 34
36 41 41 30 22z m310 4 c3 -5 -1 -9 -9 -9 -8 0 -12 4 -9 9 3 4 7 8 9 8 2 0 6
-4 9 -8z m-364 -6 c0 -2 -7 -7 -16 -10 -8 -3 -12 -2 -9 4 6 10 25 14 25 6z
m-1572 -142 l-3 -116 -108 -65 c-59 -37 -108 -64 -110 -62 -2 2 -1 56 1 120
l4 117 102 61 c55 33 105 61 109 61 4 0 6 -52 5 -116z m2462 35 c0 -16 -4 -19
-20 -14 -15 5 -20 2 -21 -12 0 -10 -3 -13 -6 -5 -2 6 -10 9 -16 5 -22 -12 3
10 30 28 16 10 29 18 31 18 1 1 2 -8 2 -20z m-3354 -6 l54 6 1 -62 c1 -34 4
-73 8 -87 4 -14 5 -33 3 -43 -4 -17 -5 -17 -19 0 -8 10 -12 12 -8 5 4 -7 1
-19 -5 -27 -17 -20 -5 -46 17 -39 14 5 15 4 4 -4 -8 -6 -21 -8 -30 -4 -9 3
-13 2 -9 -3 4 -4 1 -14 -7 -22 -8 -8 -14 -24 -14 -36 1 -20 2 -21 6 -2 3 11
10 25 15 30 8 7 9 5 5 -7 -4 -11 -1 -18 6 -18 7 0 4 -5 -6 -11 -15 -9 -16 -13
-5 -27 6 -9 -4 -2 -24 17 -20 18 -51 61 -69 95 -30 54 -34 72 -37 158 l-4 98
32 -11 c18 -7 56 -9 86 -6z m2701 -243 c26 -17 55 -32 65 -36 10 -3 18 -12 18
-20 0 -12 -8 -10 -41 6 -48 25 -85 20 -129 -17 l-30 -25 0 36 c0 33 -8 41 -33
37 -5 -1 -6 12 -2 28 6 27 2 33 -25 50 l-31 19 78 56 78 57 3 -81 3 -81 46
-29z m519 175 c-1 -8 -5 -17 -8 -21 -5 -4 -4 16 1 34 3 9 9 -1 7 -13z m-1186
-20 c17 -20 5 -62 -21 -70 -24 -8 -59 19 -59 45 0 37 55 55 80 25z m1120 -20
c0 -19 -46 -49 -61 -39 -16 10 18 35 37 27 8 -3 14 1 14 11 0 9 2 16 5 16 3 0
5 -7 5 -15z m-859 -112 c14 -14 -31 -99 -50 -95 -7 1 -10 -2 -7 -6 8 -13 -27
-42 -40 -34 -27 17 -23 55 8 91 18 20 38 35 45 33 17 -4 17 15 1 22 -7 2 -3 4
10 2 12 -1 27 -7 33 -13z m-1272 -11 c12 -22 -3 -42 -30 -42 -22 0 -33 28 -18
46 16 19 36 17 48 -4z m-228 -238 c10 -246 10 -444 -1 -465 -12 -22 -59 -26
-78 -7 -13 13 -18 594 -4 614 11 16 34 22 57 14 18 -7 21 -19 26 -156z m1273
143 c-1 -9 3 -14 9 -10 6 4 8 -4 5 -20 -3 -15 0 -28 6 -31 6 -2 3 -5 -6 -5
-10 -1 -18 -8 -18 -16 0 -8 -4 -15 -8 -15 -13 0 -11 34 2 42 7 5 5 8 -5 8 -17
0 -61 54 -52 64 3 3 20 4 37 3 22 -2 31 -8 30 -20z m412 -101 c-58 -147 -58
-156 -6 -156 22 0 40 -3 40 -6 0 -4 -19 -30 -43 -58 -24 -28 -60 -73 -81 -101
l-39 -50 7 40 c3 22 9 56 12 76 5 32 3 37 -17 42 -13 4 -41 7 -61 7 -21 0 -38
3 -38 7 0 3 8 31 17 61 16 50 29 66 131 159 63 57 116 102 119 99 3 -2 -16
-57 -41 -120z m-496 69 c8 -10 9 -19 4 -24 -15 -14 -405 -246 -461 -275 -29
-14 -69 -26 -89 -26 -49 0 -102 27 -119 61 -21 40 -19 41 21 14 81 -55 174
-27 392 118 175 115 224 147 233 147 4 0 12 -7 19 -15z m47 -50 c0 -8 -4 -12
-9 -9 -5 3 -6 10 -3 15 9 13 12 11 12 -6z m63 -11 c0 -8 -5 -12 -10 -9 -6 4
-8 11 -5 16 9 14 15 11 15 -7z m-862 -45 c21 -14 32 -29 32 -45 0 -13 -5 -24
-11 -24 -5 0 -8 4 -5 9 3 5 -5 8 -19 7 -14 0 -25 -7 -25 -14 0 -7 -5 -10 -10
-7 -6 4 -17 1 -25 -5 -13 -11 -15 -2 -15 60 l0 72 23 -16 c12 -9 37 -26 55
-37z m1602 -43 c0 -2 -7 -7 -16 -10 -8 -3 -12 -2 -9 4 6 10 25 14 25 6z m-968
-37 c-11 -4 -20 0 -24 10 -6 14 -7 14 -7 0 -1 -9 2 -19 6 -23 4 -3 8 -14 9
-24 2 -12 -2 -10 -16 8 -33 43 -19 67 26 46 20 -10 21 -12 6 -17z m-802 -13
c0 -20 -25 -37 -44 -30 -19 7 -22 50 -3 57 17 6 47 -11 47 -27z m1870 8 c42
-36 60 -74 60 -129 0 -55 -22 -108 -58 -135 -33 -26 -42 -25 -42 4 0 43 -19
77 -68 122 l-47 44 23 43 c21 40 63 76 89 77 6 0 25 -12 43 -26z m-1115 -23
c-3 -2 1 -11 7 -20 7 -9 8 -13 4 -9 -5 4 -15 0 -23 -10 -10 -13 -13 -14 -11
-2 2 8 8 19 13 23 6 5 4 7 -5 4 -8 -2 -16 -9 -16 -15 -1 -7 -2 -17 -3 -23 0
-5 -5 -8 -10 -5 -10 7 -9 25 3 44 4 7 4 11 -1 10 -4 -2 -8 1 -8 7 0 5 6 8 14
7 7 -2 10 1 6 8 -5 7 0 7 13 -1 12 -7 19 -15 17 -18z m-558 -13 c-3 -8 -6 -5
-6 6 -1 11 2 17 5 13 3 -3 4 -12 1 -19z m718 -33 c0 -28 -2 -30 -35 -27 -19 1
-48 6 -65 9 l-30 6 50 23 c64 29 80 27 80 -11z m-391 -70 c3 -8 1 -15 -4 -15
-6 0 -10 4 -10 10 0 5 -8 7 -17 4 -15 -5 -16 -4 -3 5 20 14 27 14 34 -4z
m1215 -19 l23 -24 -24 -15 c-12 -9 -92 -57 -177 -107 l-154 -91 -33 23 c-19
13 -34 25 -34 28 0 9 345 210 361 210 8 0 26 -11 38 -24z m-1489 -8 c10 -21
10 -22 -3 -5 -17 21 -28 10 -21 -21 4 -14 11 -19 22 -15 14 5 15 4 4 -8 -11
-12 -16 -11 -28 6 -8 11 -18 19 -22 18 -4 -2 -7 0 -7 5 0 4 -4 13 -9 21 -6 9
-5 12 0 8 6 -3 16 -2 24 4 22 13 28 11 40 -13z m1540 -74 c0 -17 -12 -18 -29
-1 -10 10 -11 8 -5 -8 7 -17 6 -18 -8 -7 -13 10 -17 10 -21 0 -4 -9 -6 -10 -6
-1 -1 14 50 44 61 36 5 -2 8 -11 8 -19z m-832 -136 l-3 -53 -45 0 -45 0 -3 53
-3 52 51 0 51 0 -3 -52z m-305 -36 c19 -20 18 -21 -80 -84 -54 -35 -115 -74
-136 -87 l-38 -23 -44 37 c-25 20 -45 40 -45 45 0 11 48 48 164 126 l91 61 35
-27 c19 -15 43 -37 53 -48z"/>
<path d="M6317 6682 c-33 -36 -8 -92 40 -92 25 0 53 30 53 57 0 46 -62 69 -93
35z"/>
<path d="M6340 5050 c0 -5 5 -10 11 -10 5 0 7 5 4 10 -3 6 -8 10 -11 10 -2 0
-4 -4 -4 -10z"/>
<path d="M6376 4965 c4 -8 10 -12 15 -9 11 6 2 24 -11 24 -5 0 -7 -7 -4 -15z"/>
<path d="M6327 4935 c-4 -8 -3 -16 1 -19 4 -3 9 4 9 15 2 23 -3 25 -10 4z"/>
<path d="M6360 4930 c0 -5 5 -10 11 -10 5 0 7 5 4 10 -3 6 -8 10 -11 10 -2 0
-4 -4 -4 -10z"/>
<path d="M6262 4888 c5 -15 28 -23 28 -10 0 5 -7 13 -16 16 -10 4 -14 1 -12
-6z"/>
<path d="M6294 4854 c3 -9 6 -18 6 -20 0 -2 4 -4 9 -4 5 0 7 9 4 20 -3 11 -10
20 -15 20 -6 0 -7 -7 -4 -16z"/>
<path d="M6263 4853 c-17 -6 -17 -20 0 -26 8 -3 13 3 13 14 0 11 0 19 -1 18 0
0 -6 -3 -12 -6z"/>
<path d="M3407 6568 c-46 -36 -39 -107 14 -129 80 -33 140 75 71 127 -22 17
-63 18 -85 2z"/>
<path d="M3613 5919 c-2 -17 1 -18 12 -9 8 7 12 16 9 21 -9 16 -20 10 -21 -12z"/>
<path d="M3650 5936 c0 -2 7 -7 16 -10 8 -3 12 -2 9 4 -6 10 -25 14 -25 6z"/>
<path d="M4150 5891 c0 -6 4 -13 10 -16 6 -3 7 1 4 9 -7 18 -14 21 -14 7z"/>
<path d="M3815 5880 c-3 -5 -1 -10 5 -10 7 0 10 -7 6 -15 -3 -8 -1 -15 4 -15
6 0 10 11 10 25 0 25 -14 33 -25 15z"/>
<path d="M3665 5870 c-3 -5 -2 -10 4 -10 5 0 13 5 16 10 3 6 2 10 -4 10 -5 0
-13 -4 -16 -10z"/>
<path d="M3791 5851 c-10 -6 -10 -10 -1 -16 13 -8 24 -1 19 14 -3 6 -10 7 -18
2z"/>
<path d="M3952 5846 c7 -8 15 -12 17 -11 5 6 -10 25 -20 25 -5 0 -4 -6 3 -14z"/>
<path d="M3850 5842 c0 -4 9 -8 19 -8 11 0 17 4 15 8 -3 4 -12 8 -20 8 -8 0
-14 -4 -14 -8z"/>
<path d="M5395 4100 c-3 -6 1 -7 9 -4 18 7 21 14 7 14 -6 0 -13 -4 -16 -10z"/>
<path d="M5415 4009 c-4 -6 -5 -12 -2 -15 2 -3 7 2 10 11 7 17 1 20 -8 4z"/>
<path d="M5455 3970 c-3 -5 -1 -10 4 -10 6 0 11 5 11 10 0 6 -2 10 -4 10 -3 0
-8 -4 -11 -10z"/>
<path d="M5490 3941 c0 -5 5 -13 10 -16 6 -3 10 -2 10 4 0 5 -4 13 -10 16 -5
3 -10 2 -10 -4z"/>
<path d="M5433 3925 c0 -8 6 -15 12 -15 7 0 18 7 25 15 8 9 8 15 2 15 -6 0
-13 -6 -15 -12 -4 -10 -6 -10 -6 0 -1 17 -18 15 -18 -3z"/>
<path d="M5398 3913 c7 -3 16 -2 19 1 4 3 -2 6 -13 5 -11 0 -14 -3 -6 -6z"/>
<path d="M7285 6057 c-60 -32 -60 -32 -63 -81 -5 -79 -2 -81 79 -41 l71 36 -6
37 c-3 20 -6 47 -6 60 0 28 -3 28 -75 -11z m45 -45 c0 -23 -7 -32 -35 -45 -45
-22 -45 -22 -45 8 0 18 10 31 33 45 42 26 47 25 47 -8z"/>
<path d="M7652 5715 c-38 -16 -82 -98 -82 -152 0 -92 107 -95 158 -5 32 58 30
124 -4 151 -31 24 -29 24 -72 6z"/>
<path d="M3857 4778 c19 -21 31 -25 14 -5 -6 8 -9 16 -6 19 3 2 -2 5 -10 5
-13 0 -13 -3 2 -19z"/>
<path d="M3573 4568 c-10 -11 -7 -14 15 -13 15 0 29 -2 32 -6 3 -3 16 -9 30
-12 21 -5 26 -3 26 12 0 15 -4 16 -17 8 -13 -8 -22 -7 -33 2 -8 7 -19 10 -25
7 -5 -3 -11 -1 -13 5 -2 7 -8 6 -15 -3z"/>
<path d="M7382 4627 c-70 -52 -102 -117 -102 -207 0 -51 4 -64 28 -90 36 -41
93 -50 138 -21 40 24 82 80 100 128 27 77 10 179 -34 202 -35 19 -95 13 -130
-12z m119 -31 c1 -6 1 -14 0 -18 0 -5 4 -8 9 -8 14 0 13 -74 -1 -121 -15 -48
-67 -112 -86 -105 -8 3 -11 1 -8 -4 4 -6 -7 -10 -25 -10 -18 0 -29 4 -25 10 3
5 0 7 -8 4 -8 -3 -18 0 -22 6 -5 8 2 10 21 8 24 -2 36 5 67 40 20 24 37 47 37
52 0 5 7 7 15 4 11 -5 15 1 15 20 0 14 4 26 10 26 5 0 7 7 3 16 -5 13 -7 13
-14 2 -6 -8 -9 -1 -9 22 0 19 -3 45 -6 58 -5 18 -3 21 10 16 9 -3 17 -11 17
-18z"/>
<path d="M7460 4429 c0 -5 5 -7 10 -4 6 3 10 8 10 11 0 2 -4 4 -10 4 -5 0 -10
-5 -10 -11z"/>
<path d="M7435 4401 c-3 -5 -2 -12 3 -15 5 -3 9 1 9 9 0 17 -3 19 -12 6z"/>
<path d="M6727 4583 c-4 -3 -7 -15 -7 -26 0 -16 3 -17 15 -7 8 7 15 19 15 26
0 15 -12 19 -23 7z"/>
<path d="M3517 4349 c-46 -27 -38 -103 12 -116 63 -16 105 55 60 103 -24 26
-44 29 -72 13z m57 -46 c8 -20 -19 -44 -40 -36 -14 5 -19 35 -7 46 12 13 41 7
47 -10z"/>
<path d="M3960 4430 c-12 -7 -10 -9 7 -7 12 0 19 5 17 9 -6 10 -6 10 -24 -2z"/>
<path d="M6850 4402 c-32 -32 -55 -101 -44 -135 18 -59 76 -84 122 -51 55 38
72 152 29 192 -32 31 -72 28 -107 -6z m84 -18 c36 -36 1 -144 -47 -144 -32 0
-47 18 -47 57 0 76 55 127 94 87z"/>
<path d="M6878 4336 c-11 -26 -5 -56 11 -56 16 0 33 39 26 60 -9 27 -23 25
-37 -4z"/>
<path d="M3654 4052 c0 -14 6 -17 26 -13 18 4 20 6 8 9 -10 2 -18 8 -18 13 0
5 -4 9 -8 9 -4 0 -8 -8 -8 -18z"/>
<path d="M3475 4023 c-3 -10 -3 -14 1 -10 4 4 13 2 21 -4 17 -15 17 -1 -1 16
-12 12 -15 12 -21 -2z"/>
<path d="M3452 3980 c6 -18 30 -20 34 -2 1 7 0 8 -3 2 -3 -7 -10 -7 -21 2 -13
11 -14 11 -10 -2z"/>
<path d="M2984 4101 c-65 -40 -82 -161 -36 -265 23 -52 93 -131 135 -152 15
-8 45 -16 66 -17 187 -7 144 345 -53 434 -52 24 -73 24 -112 0z m142 -53 c47
-42 78 -92 98 -158 20 -69 20 -97 -2 -140 -12 -24 -23 -34 -36 -32 -11 2 -15
-1 -11 -7 7 -12 -17 -14 -53 -4 -17 4 -20 8 -11 14 7 4 19 3 26 -3 19 -16 15
4 -6 30 -20 22 -38 31 -26 11 4 -6 -2 -5 -14 3 -12 7 -20 17 -18 23 5 14 47
19 60 6 16 -16 27 -13 21 4 -4 8 -1 15 4 15 6 0 10 23 9 56 -2 49 -7 60 -35
85 -40 36 -56 36 -89 3 -22 -22 -24 -31 -18 -62 3 -20 7 -43 7 -49 1 -7 3 -11
6 -8 9 9 32 -24 26 -39 -8 -20 -23 -21 -30 -2 -3 9 -13 12 -22 9 -9 -4 -14 -3
-10 1 3 4 -2 16 -12 26 -35 35 -50 131 -29 187 18 48 38 63 85 63 34 0 51 -7
80 -32z m-14 -125 c19 -17 25 -68 8 -78 -19 -12 -48 6 -59 36 -18 53 11 78 51
42z"/>
<path d="M3126 3764 c11 -15 23 -23 32 -19 9 3 19 0 24 -7 6 -9 8 -7 6 7 -2
13 -11 20 -27 20 -14 0 -26 6 -29 13 -2 6 -8 12 -13 12 -5 0 -2 -11 7 -26z"/>
<path d="M7148 3946 c-32 -17 -60 -37 -63 -44 -3 -7 0 -10 5 -7 5 3 27 -6 47
-20 21 -14 41 -25 45 -25 14 0 128 71 128 80 0 12 -74 51 -92 49 -7 -1 -39
-16 -70 -33z m102 -15 c0 -13 -69 -41 -86 -34 -13 5 -8 11 21 29 34 20 65 23
65 5z"/>
<path d="M6130 3220 c0 -5 5 -10 11 -10 5 0 7 5 4 10 -3 6 -8 10 -11 10 -2 0
-4 -4 -4 -10z"/>
<path d="M6377 3271 c-10 -14 -10 -14 4 -4 9 7 18 10 21 7 3 -3 8 -1 12 4 9
16 -24 9 -37 -7z"/>
<path d="M6345 3260 c-3 -5 -1 -10 4 -10 6 0 11 5 11 10 0 6 -2 10 -4 10 -3 0
-8 -4 -11 -10z"/>
<path d="M4640 3207 l-75 -43 -3 -53 c-2 -30 1 -58 5 -62 5 -5 43 11 85 36 63
37 76 49 82 76 10 50 7 89 -6 89 -7 0 -47 -19 -88 -43z m70 -42 c0 -9 -100
-75 -114 -75 -3 0 -6 11 -6 25 0 19 11 31 52 54 51 29 67 28 68 -4z"/>
<path d="M3888 3053 c7 -3 16 -2 19 1 4 3 -2 6 -13 5 -11 0 -14 -3 -6 -6z"/>
<path d="M6055 2920 c-3 -5 -1 -10 4 -10 6 0 11 5 11 10 0 6 -2 10 -4 10 -3 0
-8 -4 -11 -10z"/>
<path d="M2488 7447 l-138 -82 0 -161 0 -161 141 -78 141 -79 42 22 c22 12 86
50 141 85 l100 62 0 118 c0 64 -1 136 -3 159 l-4 43 -133 78 c-74 42 -138 77
-142 76 -4 0 -70 -37 -145 -82z m264 -19 c59 -34 108 -65 108 -69 0 -6 -196
-124 -217 -131 -5 -2 -62 26 -127 61 l-118 64 44 27 c23 15 72 45 108 68 36
22 72 41 80 41 8 1 63 -27 122 -61z m127 -125 c0 -11 -3 -13 -6 -5 -2 6 -10 9
-15 6 -7 -4 -8 -2 -4 4 11 18 26 14 25 -5z m-116 -58 c-3 -9 -8 -14 -10 -11
-3 3 -2 9 2 15 9 16 15 13 8 -4z m-47 -35 c0 -11 -6 -20 -13 -20 -20 0 -24 18
-6 29 10 6 18 11 18 11 1 0 1 -9 1 -20z m-36 -36 c0 -7 8 -14 18 -16 12 -3 9
-6 -10 -9 -21 -5 -27 -2 -30 16 -3 13 0 22 9 22 7 0 13 -6 13 -13z"/>
<path d="M3019 7451 c-21 -22 -29 -39 -29 -66 0 -48 44 -95 90 -95 47 0 90 47
90 98 0 33 -6 45 -31 66 -41 35 -83 34 -120 -3z"/>
<path d="M3387 7374 c-14 -15 -6 -34 14 -34 14 0 19 5 17 17 -3 18 -20 27 -31
17z"/>
<path d="M3457 7366 c-9 -22 18 -40 33 -22 6 9 9 20 5 26 -9 15 -32 12 -38 -4z"/>
<path d="M3380 7279 c0 -14 5 -19 17 -17 26 5 29 38 4 38 -15 0 -21 -6 -21
-21z"/>
<path d="M3455 7290 c-4 -7 -3 -16 3 -22 14 -14 45 -2 40 15 -6 16 -34 21 -43
7z"/>
<path d="M7836 7131 c-9 -15 23 -36 36 -23 5 5 7 15 4 21 -9 13 -33 14 -40 2z"/>
<path d="M7916 7125 c-3 -9 1 -18 10 -22 19 -7 39 11 30 26 -10 16 -33 13 -40
-4z"/>
<path d="M7842 7057 c-7 -8 -7 -18 -2 -27 8 -13 11 -13 26 2 9 9 13 21 10 27
-9 15 -21 14 -34 -2z"/>
<path d="M7914 7059 c-10 -17 23 -46 37 -32 7 7 9 19 6 27 -7 18 -33 21 -43 5z"/>
<path d="M2364 6787 c-4 -13 2 -27 20 -46 l27 -28 -26 -22 c-18 -14 -25 -26
-21 -37 6 -15 11 -13 36 11 l30 29 29 -28 c18 -17 31 -24 35 -17 9 13 -1 31
-26 49 -18 13 -17 15 7 44 14 16 25 34 25 39 0 17 -27 9 -51 -17 l-24 -25 -27
33 c-23 29 -27 31 -34 15z"/>
<path d="M4636 6683 c10 -7 14 -13 9 -13 -5 0 -4 -5 3 -12 9 -9 15 -9 24 0 9
9 9 12 -1 12 -7 0 -9 5 -5 12 4 7 3 8 -4 4 -7 -4 -12 -3 -12 2 0 5 -7 9 -16 9
-14 0 -14 -2 2 -14z"/>
<path d="M2721 6657 c-11 -14 -15 -39 -13 -68 1 -9 43 -53 93 -98 78 -71 95
-82 122 -79 24 2 35 11 45 32 19 38 12 49 -90 144 -68 64 -94 82 -116 82 -16
0 -35 -6 -41 -13z m52 -23 c9 -3 13 -13 10 -25 -3 -10 -9 -16 -14 -13 -5 3 -7
9 -4 14 3 5 1 11 -5 15 -5 3 -10 -2 -10 -11 0 -10 -3 -15 -6 -11 -7 6 2 37 10
37 2 0 11 -3 19 -6z m61 -53 c3 -5 -1 -14 -8 -20 -12 -10 -14 -9 -11 6 2 10 4
19 4 21 2 5 10 2 15 -7z m21 -59 c-3 -3 -11 0 -18 7 -9 10 -8 11 6 5 10 -3 15
-9 12 -12z m80 -72 c-3 -5 -12 -10 -18 -10 -7 0 -6 4 3 10 19 12 23 12 15 0z"/>
<path d="M2434 5956 c-5 -12 4 -28 26 -51 l32 -33 -33 -30 c-23 -21 -30 -34
-25 -47 6 -16 11 -14 44 18 l38 37 36 -37 c31 -30 38 -34 43 -21 5 11 -5 27
-27 47 l-33 30 38 39 c31 32 35 41 24 50 -11 9 -21 4 -47 -23 l-34 -35 -38 37
c-32 31 -38 34 -44 19z"/>
<path d="M7913 5395 c-29 -20 -31 -75 -5 -98 40 -37 102 -7 102 48 0 49 -57
78 -97 50z m64 -41 c4 -11 -1 -22 -12 -31 -16 -11 -21 -11 -33 1 -8 8 -12 22
-9 30 8 21 46 21 54 0z"/>
<path d="M7850 5171 l0 -41 -40 0 c-33 0 -40 -3 -40 -20 0 -17 7 -20 39 -20
38 0 39 -1 39 -36 0 -19 2 -38 5 -41 13 -12 27 11 27 43 0 33 1 34 39 34 24 0
41 5 44 14 8 20 -2 26 -44 26 -36 0 -38 1 -41 37 -4 52 -28 56 -28 4z"/>
<path d="M2373 5024 c-8 -21 13 -42 28 -27 13 13 5 43 -11 43 -6 0 -13 -7 -17
-16z"/>
<path d="M2460 5025 c-20 -24 4 -45 26 -24 13 14 13 17 1 27 -11 10 -17 9 -27
-3z"/>
<path d="M2723 4962 l-113 -66 -1 -80 c-1 -134 0 -198 3 -201 16 -13 230 -125
239 -125 25 0 239 132 240 148 1 10 0 71 0 137 -2 107 -4 122 -22 137 -30 26
-204 118 -220 117 -8 0 -65 -30 -126 -67z m235 -18 c45 -25 82 -47 82 -49 0
-2 -43 -30 -96 -61 -87 -53 -98 -56 -117 -44 -12 8 -55 32 -95 55 l-72 42 92
55 c51 31 100 54 108 51 8 -2 52 -24 98 -49z m102 -193 l0 -109 -95 -55 -96
-56 3 111 3 112 90 53 c50 29 91 53 93 53 1 0 2 -49 2 -109z"/>
<path d="M2381 4951 c-15 -10 -8 -41 9 -41 15 0 25 29 14 40 -5 5 -15 5 -23 1z"/>
<path d="M2452 4933 c5 -26 38 -29 38 -4 0 15 -6 21 -21 21 -14 0 -19 -5 -17
-17z"/>
<path d="M7730 4854 l-45 -46 44 -39 c24 -21 46 -39 50 -39 3 0 26 18 51 40
l45 39 -45 45 c-24 25 -47 46 -50 46 -3 0 -26 -21 -50 -46z m78 -17 l22 -23
-28 -27 -28 -27 -24 25 -23 25 23 25 c29 31 31 31 58 2z"/>
<path d="M7752 4538 c-27 -27 -3 -88 34 -88 15 0 54 35 54 48 0 4 -7 18 -16
30 -17 24 -53 29 -72 10z m51 -33 c1 -5 -6 -11 -15 -13 -11 -2 -18 3 -18 13 0
17 30 18 33 0z"/>
<path d="M2585 4400 c-8 -16 -30 -37 -47 -46 l-32 -17 25 -18 c30 -23 45 -38
68 -68 l18 -25 17 31 c9 18 29 40 46 50 37 21 38 30 5 45 -14 6 -34 26 -45 45
-24 41 -35 41 -55 3z m49 -49 c16 -18 16 -20 0 -40 l-18 -21 -23 22 c-22 20
-22 23 -6 40 20 23 26 23 47 -1z"/>
<path d="M7666 4213 c-11 -24 -30 -46 -54 -58 -50 -27 -52 -49 -6 -73 21 -11
46 -35 59 -57 11 -21 26 -40 32 -42 7 -3 23 14 37 36 15 23 43 49 66 61 53 27
54 56 2 76 -25 10 -44 27 -57 52 -28 52 -57 54 -79 5z"/>
<path d="M2702 3888 c-7 -7 -12 -21 -12 -33 0 -12 5 -26 12 -33 7 -7 21 -12
33 -12 12 0 26 5 33 12 7 7 12 21 12 33 0 12 -5 26 -12 33 -7 7 -21 12 -33 12
-12 0 -26 -5 -33 -12z m48 -33 c0 -8 -7 -15 -15 -15 -8 0 -15 7 -15 15 0 8 7
15 15 15 8 0 15 -7 15 -15z"/>
<path d="M3523 3372 c-6 -4 -17 -20 -22 -35 -20 -52 26 -95 79 -75 30 11 40
25 40 59 0 45 -58 76 -97 51z"/>
<path d="M3289 3331 c-20 -16 -22 -23 -14 -47 18 -51 95 -40 95 13 0 15 -35
53 -49 53 -5 0 -19 -9 -32 -19z m44 -36 c1 -5 -6 -11 -15 -13 -11 -2 -18 3
-18 13 0 17 30 18 33 0z"/>
<path d="M3448 3134 c-58 -31 -77 -127 -36 -179 69 -88 203 -52 215 58 12 103
-88 171 -179 121z m103 -24 c29 -16 51 -67 44 -101 -8 -37 -49 -69 -87 -69
-41 0 -88 48 -88 90 0 62 76 109 131 80z"/>
<path d="M7185 2990 c-39 -5 -40 -6 -43 -45 l-3 -40 26 33 c39 48 93 43 121
-11 15 -28 15 -32 -4 -56 -14 -19 -30 -27 -60 -29 -37 -3 -42 0 -57 28 -19 37
-26 34 -27 -10 -1 -40 14 -50 80 -50 83 0 92 8 92 89 0 43 -5 72 -12 79 -17
13 -64 18 -113 12z"/>
<path d="M7199 2924 c-17 -21 0 -49 32 -49 27 0 37 28 19 50 -16 19 -34 19
-51 -1z"/>
<path d="M4393 2820 c-38 -15 -43 -42 -43 -210 0 -158 1 -161 25 -185 31 -32
74 -33 103 -2 21 22 22 33 22 184 0 89 -3 169 -6 178 -6 15 -54 46 -71 44 -4
0 -18 -4 -30 -9z m65 -42 c8 -8 12 -59 12 -164 0 -125 -3 -155 -16 -168 -8 -9
-22 -16 -29 -16 -7 0 -21 7 -29 16 -13 12 -16 41 -16 154 0 156 8 190 43 190
13 0 28 -5 35 -12z"/>
<path d="M3733 2690 c-37 -15 -54 -69 -37 -115 10 -24 60 -46 89 -39 31 8 65
49 65 80 0 50 -69 94 -117 74z m65 -42 c17 -17 15 -53 -3 -68 -20 -17 -62 -5
-70 20 -14 44 41 80 73 48z"/>
<path d="M4872 2103 l3 -78 78 -3 77 -3 0 81 0 80 -80 0 -81 0 3 -77z m128 -4
l0 -50 -47 3 c-46 3 -48 4 -51 36 -5 53 2 62 53 62 l45 0 0 -51z"/>
<path d="M5742 2043 c2 -10 10 -18 18 -18 22 0 18 29 -3 33 -14 3 -18 -1 -15
-15z"/>
<path d="M5817 2046 c-7 -16 1 -26 20 -26 7 0 13 9 13 20 0 23 -25 27 -33 6z"/>
<path d="M6018 1979 l-47 -49 51 -51 c53 -53 54 -53 72 -17 6 13 26 32 43 43
40 25 40 31 3 50 -16 8 -37 29 -45 45 -9 17 -19 30 -23 29 -4 -1 -28 -23 -54
-50z m75 -27 c16 -17 15 -20 -6 -40 l-24 -22 -18 20 c-17 19 -17 21 0 40 22
25 28 25 48 2z"/>
<path d="M5747 1983 c-4 -3 -7 -12 -7 -20 0 -15 26 -18 34 -4 7 11 -18 33 -27
24z"/>
<path d="M5815 1980 c-8 -14 3 -30 21 -30 8 0 14 9 14 20 0 21 -24 28 -35 10z"/>
</g>
</svg>
